<?xml version="1.0" encoding="UTF-8" standalone="no"?> <svg xmlns:inkscape="http://www.inkscape.org/namespaces/inkscape" xmlns:sodipodi="http://sodipodi.sourceforge.net/DTD/sodipodi-0.dtd" xmlns="http://www.w3.org/2000/svg" xmlns:svg="http://www.w3.org/2000/svg" width="690mm" height="130mm" viewBox="0 0 690 130" version="1.1" id="svg1330"><defs id="defs1327"><clipPath id="clipPath1246"><path d="m 74.897,243.248 0.086,-0.214 6.906,2.751 -0.085,0.215 z" id="path1244"></path></clipPath><linearGradient x1="0" y1="0" x2="1" y2="0" gradientUnits="userSpaceOnUse" gradientTransform="matrix(6.9924393,0,0,-6.9924393,74.896812,244.51657)" spreadMethod="pad" id="linearGradient1256"><stop style="stop-opacity:1;stop-color:#2b60a8" offset="0" id="stop1252"></stop><stop style="stop-opacity:1;stop-color:#2b44a1" offset="1" id="stop1254"></stop></linearGradient><clipPath id="clipPath1266"><path d="m 74.842,243.78 0.239,-0.116 2.375,4.885 -0.239,0.116 z" id="path1264"></path></clipPath><linearGradient x1="0" y1="0" x2="1" y2="0" gradientUnits="userSpaceOnUse" gradientTransform="matrix(2.613163,0,0,-2.613163,74.842217,246.16449)" spreadMethod="pad" id="linearGradient1276"><stop style="stop-opacity:1;stop-color:#2b60a8" offset="0" id="stop1272"></stop><stop style="stop-opacity:1;stop-color:#2b44a1" offset="1" id="stop1274"></stop></linearGradient><clipPath id="clipPath1286"><path d="m 72.247,250.89 1.954,-7.11 0.264,0.072 -1.954,7.11 z" id="path1284"></path></clipPath><linearGradient x1="0" y1="0" x2="1" y2="0" gradientUnits="userSpaceOnUse" gradientTransform="matrix(2.2166824,0,0,-2.2166824,72.248077,247.37106)" spreadMethod="pad" id="linearGradient1296"><stop style="stop-opacity:1;stop-color:#2b60a8" offset="0" id="stop1292"></stop><stop style="stop-opacity:1;stop-color:#2b44a1" offset="1" id="stop1294"></stop></linearGradient><clipPath id="clipPath1306"><path d="m 73.151,251.387 8.411,-5.233 0.139,0.225 -8.41,5.232 z" id="path1304"></path></clipPath><linearGradient x1="0" y1="0" x2="1" y2="0" gradientUnits="userSpaceOnUse" gradientTransform="matrix(8.5501175,0,0,-8.5501175,73.151024,248.88249)" spreadMethod="pad" id="linearGradient1316"><stop style="stop-opacity:1;stop-color:#2b60a8" offset="0" id="stop1312"></stop><stop style="stop-opacity:1;stop-color:#2b44a1" offset="1" id="stop1314"></stop></linearGradient><clipPath id="clipPath1326"><path d="m 74.941,242.374 6.783,-8.786 0.256,0.199 -6.782,8.785 z" id="path1324"></path></clipPath><linearGradient x1="0" y1="0" x2="1" y2="0" gradientUnits="userSpaceOnUse" gradientTransform="matrix(7.0397015,0,0,-7.0397015,74.940811,238.08009)" spreadMethod="pad" id="linearGradient1336"><stop style="stop-opacity:1;stop-color:#2b60a8" offset="0" id="stop1332"></stop><stop style="stop-opacity:1;stop-color:#2b44a1" offset="1" id="stop1334"></stop></linearGradient><clipPath id="clipPath1346"><path d="m 67.017,239.491 0.155,-0.322 7.485,3.617 -0.156,0.322 z" id="path1344"></path></clipPath><linearGradient x1="0" y1="0" x2="1" y2="0" gradientUnits="userSpaceOnUse" gradientTransform="matrix(7.639904,0,0,-7.639904,67.01667,241.13815)" spreadMethod="pad" id="linearGradient1356"><stop style="stop-opacity:1;stop-color:#2b60a8" offset="0" id="stop1352"></stop><stop style="stop-opacity:1;stop-color:#2b44a1" offset="1" id="stop1354"></stop></linearGradient><clipPath id="clipPath1366"><path d="m 74.953,229.823 0.119,-0.236 7.12,3.588 -0.119,0.236 z" id="path1364"></path></clipPath><linearGradient x1="0" y1="0" x2="1" y2="0" gradientUnits="userSpaceOnUse" gradientTransform="matrix(7.2388492,0,0,-7.2388492,74.952789,231.49927)" spreadMethod="pad" id="linearGradient1376"><stop style="stop-opacity:1;stop-color:#2b60a8" offset="0" id="stop1372"></stop><stop style="stop-opacity:1;stop-color:#2b44a1" offset="1" id="stop1374"></stop></linearGradient><clipPath id="clipPath1386"><path d="m 66.848,239.166 7.666,-9.499 0.178,0.144 -7.665,9.499 z" id="path1384"></path></clipPath><linearGradient x1="0" y1="0" x2="1" y2="0" gradientUnits="userSpaceOnUse" gradientTransform="matrix(7.8436971,0,0,-7.8436971,66.847938,234.48846)" spreadMethod="pad" id="linearGradient1396"><stop style="stop-opacity:1;stop-color:#2b60a8" offset="0" id="stop1392"></stop><stop style="stop-opacity:1;stop-color:#2b44a1" offset="1" id="stop1394"></stop></linearGradient><clipPath id="clipPath1406"><path d="m 67.407,239.005 14.585,-5.864 0.135,0.335 -14.586,5.864 z" id="path1404"></path></clipPath><linearGradient x1="0" y1="0" x2="1" y2="0" gradientUnits="userSpaceOnUse" gradientTransform="matrix(14.719829,0,0,-14.719829,67.406975,236.24046)" spreadMethod="pad" id="linearGradient1416"><stop style="stop-opacity:1;stop-color:#2b60a8" offset="0" id="stop1412"></stop><stop style="stop-opacity:1;stop-color:#2b44a1" offset="1" id="stop1414"></stop></linearGradient><clipPath id="clipPath1426"><path d="m 67.234,245.568 14.537,-18.519 0.167,0.131 -14.537,18.518 z" id="path1424"></path></clipPath><linearGradient x1="0" y1="0" x2="1" y2="0" gradientUnits="userSpaceOnUse" gradientTransform="matrix(14.703492,0,0,-14.703492,67.234474,236.37372)" spreadMethod="pad" id="linearGradient1436"><stop style="stop-opacity:1;stop-color:#2b60a8" offset="0" id="stop1432"></stop><stop style="stop-opacity:1;stop-color:#2b44a1" offset="1" id="stop1434"></stop></linearGradient><clipPath id="clipPath1446"><path d="m 77.72,249.125 0.112,-0.159 3.596,2.518 -0.111,0.16 z" id="path1444"></path></clipPath><linearGradient x1="0" y1="0" x2="1" y2="0" gradientUnits="userSpaceOnUse" gradientTransform="matrix(3.7079296,0,0,-3.7079296,77.720375,250.30499)" spreadMethod="pad" id="linearGradient1456"><stop style="stop-opacity:1;stop-color:#2b60a8" offset="0" id="stop1452"></stop><stop style="stop-opacity:1;stop-color:#2b44a1" offset="1" id="stop1454"></stop></linearGradient><clipPath id="clipPath1466"><path d="m 74.478,230.069 h 0.299 v 12.61 h -0.299 z" id="path1464"></path></clipPath><linearGradient x1="0" y1="0" x2="1" y2="0" gradientUnits="userSpaceOnUse" gradientTransform="matrix(0.2987556,0,0,-0.2987556,74.477829,236.37376)" spreadMethod="pad" id="linearGradient1476"><stop style="stop-opacity:1;stop-color:#2b60a8" offset="0" id="stop1472"></stop><stop style="stop-opacity:1;stop-color:#2b44a1" offset="1" id="stop1474"></stop></linearGradient><clipPath id="clipPath1486"><path d="m 73.709,247.81 0.077,-0.214 3.245,1.034 -0.043,0.153 z" id="path1484"></path></clipPath><linearGradient x1="0" y1="0" x2="1" y2="0" gradientUnits="userSpaceOnUse" gradientTransform="matrix(3.3211057,0,0,-3.3211057,73.709404,248.18951)" spreadMethod="pad" id="linearGradient1496"><stop style="stop-opacity:1;stop-color:#2b60a8" offset="0" id="stop1492"></stop><stop style="stop-opacity:1;stop-color:#2b44a1" offset="1" id="stop1494"></stop></linearGradient><clipPath id="clipPath1506"><path d="m 67.596,246.87 0.154,-0.136 3.561,4.337 -0.145,0.128 z" id="path1504"></path></clipPath><linearGradient x1="0" y1="0" x2="1" y2="0" gradientUnits="userSpaceOnUse" gradientTransform="matrix(3.7137349,0,0,-3.7137349,67.596687,248.96638)" spreadMethod="pad" id="linearGradient1516"><stop style="stop-opacity:1;stop-color:#2b60a8" offset="0" id="stop1512"></stop><stop style="stop-opacity:1;stop-color:#2b44a1" offset="1" id="stop1514"></stop></linearGradient><clipPath id="clipPath1526"><path d="m 67.016,246.221 0.048,-0.208 6.416,1.466 -0.047,0.209 z" id="path1524"></path></clipPath><linearGradient x1="0" y1="0" x2="1" y2="0" gradientUnits="userSpaceOnUse" gradientTransform="matrix(6.4644785,0,0,-6.4644785,67.016014,246.85019)" spreadMethod="pad" id="linearGradient1536"><stop style="stop-opacity:1;stop-color:#2b60a8" offset="0" id="stop1532"></stop><stop style="stop-opacity:1;stop-color:#2b44a1" offset="1" id="stop1534"></stop></linearGradient><clipPath id="clipPath1546"><path d="M 52.955,252.044 H 81.35 v 0.162 H 52.955 Z" id="path1544"></path></clipPath><linearGradient x1="0" y1="0" x2="1" y2="0" gradientUnits="userSpaceOnUse" gradientTransform="matrix(28.395351,0,0,-28.395351,52.955048,252.12523)" spreadMethod="pad" id="linearGradient1556"><stop style="stop-opacity:1;stop-color:#2b60a8" offset="0" id="stop1552"></stop><stop style="stop-opacity:1;stop-color:#2b44a1" offset="1" id="stop1554"></stop></linearGradient><clipPath id="clipPath1566"><path d="m 67.596,257.371 3.553,-4.328 0.154,0.17 -3.57,4.295 z" id="path1564"></path></clipPath><linearGradient x1="0" y1="0" x2="1" y2="0" gradientUnits="userSpaceOnUse" gradientTransform="matrix(3.7051673,0,0,-3.7051673,67.596687,255.27553)" spreadMethod="pad" id="linearGradient1576"><stop style="stop-opacity:1;stop-color:#2b60a8" offset="0" id="stop1572"></stop><stop style="stop-opacity:1;stop-color:#2b44a1" offset="1" id="stop1574"></stop></linearGradient><clipPath id="clipPath1586"><path d="m 62.858,252.941 0.12,-0.137 3.483,4.542 -0.145,0.068 z" id="path1584"></path></clipPath><linearGradient x1="0" y1="0" x2="1" y2="0" gradientUnits="userSpaceOnUse" gradientTransform="matrix(3.6027999,0,0,-3.6027999,62.858391,255.10905)" spreadMethod="pad" id="linearGradient1596"><stop style="stop-opacity:1;stop-color:#2b60a8" offset="0" id="stop1592"></stop><stop style="stop-opacity:1;stop-color:#2b44a1" offset="1" id="stop1594"></stop></linearGradient><clipPath id="clipPath1606"><path d="m 60.204,254.696 6.144,-7.902 0.113,0.104 -6.084,7.921 z" id="path1604"></path></clipPath><linearGradient x1="0" y1="0" x2="1" y2="0" gradientUnits="userSpaceOnUse" gradientTransform="matrix(6.257926,0,0,-6.257926,60.203266,250.8062)" spreadMethod="pad" id="linearGradient1616"><stop style="stop-opacity:1;stop-color:#2b60a8" offset="0" id="stop1612"></stop><stop style="stop-opacity:1;stop-color:#2b44a1" offset="1" id="stop1614"></stop></linearGradient><clipPath id="clipPath1626"><path d="m 60.204,249.619 0.127,-0.11 1.417,1.81 -0.162,0.068 z" id="path1624"></path></clipPath><linearGradient x1="0" y1="0" x2="1" y2="0" gradientUnits="userSpaceOnUse" gradientTransform="matrix(1.5452604,0,0,-1.5452604,60.203266,250.44762)" spreadMethod="pad" id="linearGradient1636"><stop style="stop-opacity:1;stop-color:#2b60a8" offset="0" id="stop1632"></stop><stop style="stop-opacity:1;stop-color:#2b44a1" offset="1" id="stop1634"></stop></linearGradient><clipPath id="clipPath1646"><path d="m 66.239,232.4 0.112,-0.229 16.582,8.11 -0.111,0.229 z" id="path1644"></path></clipPath><linearGradient x1="0" y1="0" x2="1" y2="0" gradientUnits="userSpaceOnUse" gradientTransform="matrix(16.694241,0,0,-16.694241,66.239098,236.3405)" spreadMethod="pad" id="linearGradient1656"><stop style="stop-opacity:1;stop-color:#2b60a8" offset="0" id="stop1652"></stop><stop style="stop-opacity:1;stop-color:#2b44a1" offset="1" id="stop1654"></stop></linearGradient><clipPath id="clipPath1666"><path d="m 66.567,232.756 15.108,-6.032 0.06,0.151 -15.108,6.032 z" id="path1664"></path></clipPath><linearGradient x1="0" y1="0" x2="1" y2="0" gradientUnits="userSpaceOnUse" gradientTransform="matrix(15.168001,0,0,-15.168001,66.566971,229.81566)" spreadMethod="pad" id="linearGradient1676"><stop style="stop-opacity:1;stop-color:#2b60a8" offset="0" id="stop1672"></stop><stop style="stop-opacity:1;stop-color:#2b44a1" offset="1" id="stop1674"></stop></linearGradient><clipPath id="clipPath1686"><path d="m 66.897,233.083 h 0.196 v 24.092 h -0.196 z" id="path1684"></path></clipPath><linearGradient x1="0" y1="0" x2="1" y2="0" gradientUnits="userSpaceOnUse" gradientTransform="matrix(0.1963883,0,0,-0.1963883,66.896584,245.12883)" spreadMethod="pad" id="linearGradient1696"><stop style="stop-opacity:1;stop-color:#2b60a8" offset="0" id="stop1692"></stop><stop style="stop-opacity:1;stop-color:#2b44a1" offset="1" id="stop1694"></stop></linearGradient><clipPath id="clipPath1706"><path d="m 52.757,251.635 28.648,-11.438 0.073,0.182 -28.649,11.438 z" id="path1704"></path></clipPath><linearGradient x1="0" y1="0" x2="1" y2="0" gradientUnits="userSpaceOnUse" gradientTransform="matrix(28.721264,0,0,-28.721264,52.756626,246.00735)" spreadMethod="pad" id="linearGradient1716"><stop style="stop-opacity:1;stop-color:#2b60a8" offset="0" id="stop1712"></stop><stop style="stop-opacity:1;stop-color:#2b44a1" offset="1" id="stop1714"></stop></linearGradient><clipPath id="clipPath1726"><path d="m 74.723,260.658 6.777,-7.825 0.124,0.105 -6.778,7.826 z" id="path1724"></path></clipPath><linearGradient x1="0" y1="0" x2="1" y2="0" gradientUnits="userSpaceOnUse" gradientTransform="matrix(6.900598,0,0,-6.900598,74.723007,256.79825)" spreadMethod="pad" id="linearGradient1736"><stop style="stop-opacity:1;stop-color:#2b60a8" offset="0" id="stop1732"></stop><stop style="stop-opacity:1;stop-color:#2b44a1" offset="1" id="stop1734"></stop></linearGradient><clipPath id="clipPath1746"><path d="m 67.784,258.029 h 13.839 v 0.256 H 67.784 Z" id="path1744"></path></clipPath><linearGradient x1="0" y1="0" x2="1" y2="0" gradientUnits="userSpaceOnUse" gradientTransform="matrix(13.839093,0,0,-13.839093,67.784508,258.15689)" spreadMethod="pad" id="linearGradient1756"><stop style="stop-opacity:1;stop-color:#2b60a8" offset="0" id="stop1752"></stop><stop style="stop-opacity:1;stop-color:#2b44a1" offset="1" id="stop1754"></stop></linearGradient><clipPath id="clipPath1766"><path d="m 67.727,257.737 13.568,-5.475 0.096,0.237 -13.569,5.476 z" id="path1764"></path></clipPath><linearGradient x1="0" y1="0" x2="1" y2="0" gradientUnits="userSpaceOnUse" gradientTransform="matrix(13.663832,0,0,-13.663832,67.726715,255.11835)" spreadMethod="pad" id="linearGradient1776"><stop style="stop-opacity:1;stop-color:#2b60a8" offset="0" id="stop1772"></stop><stop style="stop-opacity:1;stop-color:#2b44a1" offset="1" id="stop1774"></stop></linearGradient><clipPath id="clipPath1786"><path d="m 72.864,253.239 0.129,-0.102 8.631,10.356 -0.12,0.12 z" id="path1784"></path></clipPath><linearGradient x1="0" y1="0" x2="1" y2="0" gradientUnits="userSpaceOnUse" gradientTransform="matrix(8.7593555,0,0,-8.7593555,72.86425,258.37463)" spreadMethod="pad" id="linearGradient1796"><stop style="stop-opacity:1;stop-color:#2b60a8" offset="0" id="stop1792"></stop><stop style="stop-opacity:1;stop-color:#2b44a1" offset="1" id="stop1794"></stop></linearGradient><clipPath id="clipPath1806"><path d="m 76.233,258.148 c 0,-0.471 0.381,-0.852 0.852,-0.852 v 0 c 0.471,0 0.852,0.381 0.852,0.852 v 0 c 0,0.471 -0.381,0.852 -0.852,0.852 v 0 c -0.471,0 -0.852,-0.381 -0.852,-0.852 m -2.22,-3.025 c 0,-0.294 0.24,-0.534 0.534,-0.534 v 0 c 0.294,0 0.534,0.24 0.534,0.534 v 0 c 0,0.294 -0.24,0.534 -0.534,0.534 v 0 c -0.295,0 -0.534,-0.24 -0.534,-0.534" id="path1804"></path></clipPath><linearGradient x1="0" y1="0" x2="1" y2="0" gradientUnits="userSpaceOnUse" gradientTransform="matrix(3.9239175,0,0,-3.9239175,74.0131,256.79495)" spreadMethod="pad" id="linearGradient1816"><stop style="stop-opacity:1;stop-color:#2b60a8" offset="0" id="stop1812"></stop><stop style="stop-opacity:1;stop-color:#2b44a1" offset="1" id="stop1814"></stop></linearGradient><clipPath id="clipPath1826"><path d="m 70.651,252.097 c 0,-0.786 0.636,-1.422 1.421,-1.422 v 0 c 0.786,0 1.422,0.636 1.422,1.422 v 0 c 0,0.785 -0.636,1.421 -1.422,1.421 v 0 c -0.785,0 -1.421,-0.636 -1.421,-1.421" id="path1824"></path></clipPath><linearGradient x1="0" y1="0" x2="1" y2="0" gradientUnits="userSpaceOnUse" gradientTransform="matrix(2.8429453,0,0,-2.8429453,70.650833,252.09698)" spreadMethod="pad" id="linearGradient1836"><stop style="stop-opacity:1;stop-color:#2b60a8" offset="0" id="stop1832"></stop><stop style="stop-opacity:1;stop-color:#2b44a1" offset="1" id="stop1834"></stop></linearGradient><clipPath id="clipPath1846"><path d="m 61.223,252.146 c 0,-0.587 0.477,-1.063 1.063,-1.063 v 0 c 0.587,0 1.063,0.476 1.063,1.063 v 0 c 0,0.587 -0.476,1.063 -1.063,1.063 v 0 c -0.586,0 -1.063,-0.476 -1.063,-1.063 m 5.184,-0.049 c 0,-0.316 0.256,-0.572 0.572,-0.572 v 0 c 0.316,0 0.572,0.256 0.572,0.572 v 0 c 0,0.316 -0.256,0.573 -0.572,0.573 v 0 c -0.316,0 -0.572,-0.257 -0.572,-0.573" id="path1844"></path></clipPath><linearGradient x1="0" y1="0" x2="1" y2="0" gradientUnits="userSpaceOnUse" gradientTransform="matrix(6.3274069,0,0,-6.3274069,61.223614,252.14577)" spreadMethod="pad" id="linearGradient1856"><stop style="stop-opacity:1;stop-color:#2b60a8" offset="0" id="stop1852"></stop><stop style="stop-opacity:1;stop-color:#2b44a1" offset="1" id="stop1854"></stop></linearGradient><clipPath id="clipPath1866"><path d="m 58.965,248.932 c 0,-0.453 0.368,-0.82 0.82,-0.82 v 0 c 0.453,0 0.819,0.367 0.819,0.82 v 0 c 0,0.453 -0.366,0.819 -0.819,0.819 v 0 c -0.452,0 -0.82,-0.366 -0.82,-0.819" id="path1864"></path></clipPath><linearGradient x1="0" y1="0" x2="1" y2="0" gradientUnits="userSpaceOnUse" gradientTransform="matrix(1.6392076,0,0,-1.6392076,58.965328,248.93176)" spreadMethod="pad" id="linearGradient1876"><stop style="stop-opacity:1;stop-color:#2b60a8" offset="0" id="stop1872"></stop><stop style="stop-opacity:1;stop-color:#2b44a1" offset="1" id="stop1874"></stop></linearGradient><clipPath id="clipPath1886"><path d="m 65.855,246.09 c 0,-0.611 0.495,-1.106 1.106,-1.106 v 0 c 0.61,0 1.105,0.495 1.105,1.106 v 0 c 0,0.611 -0.495,1.106 -1.105,1.106 v 0 c -0.611,0 -1.106,-0.495 -1.106,-1.106" id="path1884"></path></clipPath><linearGradient x1="0" y1="0" x2="1" y2="0" gradientUnits="userSpaceOnUse" gradientTransform="matrix(2.2111664,0,0,-2.2111664,65.855034,246.09012)" spreadMethod="pad" id="linearGradient1896"><stop style="stop-opacity:1;stop-color:#2b60a8" offset="0" id="stop1892"></stop><stop style="stop-opacity:1;stop-color:#2b44a1" offset="1" id="stop1894"></stop></linearGradient><clipPath id="clipPath1906"><path d="m 72.718,247.54 c 0,-0.315 0.257,-0.572 0.573,-0.572 v 0 c 0.316,0 0.572,0.257 0.572,0.572 v 0 c 0,0.316 -0.256,0.572 -0.572,0.572 v 0 c -0.316,0 -0.573,-0.256 -0.573,-0.572" id="path1904"></path></clipPath><linearGradient x1="0" y1="0" x2="1" y2="0" gradientUnits="userSpaceOnUse" gradientTransform="matrix(1.1440623,0,0,-1.1440623,72.718681,247.54016)" spreadMethod="pad" id="linearGradient1916"><stop style="stop-opacity:1;stop-color:#2b60a8" offset="0" id="stop1912"></stop><stop style="stop-opacity:1;stop-color:#2b44a1" offset="1" id="stop1914"></stop></linearGradient><clipPath id="clipPath1926"><path d="m 76.932,248.873 c 0,-0.292 0.238,-0.529 0.529,-0.529 v 0 c 0.293,0 0.529,0.237 0.529,0.529 v 0 c 0,0.292 -0.236,0.53 -0.529,0.53 v 0 c -0.291,0 -0.529,-0.238 -0.529,-0.53 m -3.15,-5.828 c 0,-0.464 0.376,-0.842 0.841,-0.842 v 0 c 0.464,0 0.84,0.378 0.84,0.842 v 0 c 0,0.464 -0.376,0.841 -0.84,0.841 v 0 c -0.465,0 -0.841,-0.377 -0.841,-0.841" id="path1924"></path></clipPath><linearGradient x1="0" y1="0" x2="1" y2="0" gradientUnits="userSpaceOnUse" gradientTransform="matrix(4.2092433,0,0,-4.2092433,73.781502,245.80309)" spreadMethod="pad" id="linearGradient1936"><stop style="stop-opacity:1;stop-color:#2b60a8" offset="0" id="stop1932"></stop><stop style="stop-opacity:1;stop-color:#2b44a1" offset="1" id="stop1934"></stop></linearGradient><clipPath id="clipPath1946"><path d="m 70.259,241.138 c 0,-0.297 0.242,-0.537 0.539,-0.537 v 0 c 0.296,0 0.537,0.24 0.537,0.537 v 0 c 0,0.297 -0.241,0.538 -0.537,0.538 v 0 c -0.297,0 -0.539,-0.241 -0.539,-0.538 m -4.086,-1.885 c 0,-0.445 0.36,-0.807 0.806,-0.807 v 0 c 0.445,0 0.807,0.362 0.807,0.807 v 0 c 0,0.446 -0.362,0.807 -0.807,0.807 v 0 c -0.446,0 -0.806,-0.361 -0.806,-0.807 m 11.611,-1.109 c 0,-0.319 0.258,-0.577 0.576,-0.577 v 0 c 0.319,0 0.576,0.258 0.576,0.577 v 0 c 0,0.317 -0.257,0.576 -0.576,0.576 v 0 c -0.318,0 -0.576,-0.259 -0.576,-0.576 m -4.493,-1.774 c 0,-0.775 0.629,-1.404 1.404,-1.404 v 0 c 0.776,0 1.405,0.629 1.405,1.404 v 0 c 0,0.775 -0.629,1.405 -1.405,1.405 v 0 c -0.775,0 -1.404,-0.63 -1.404,-1.405 m -3.075,-1.963 c 0,-0.31 0.251,-0.56 0.56,-0.56 v 0 c 0.309,0 0.559,0.25 0.559,0.56 v 0 c 0,0.308 -0.25,0.559 -0.559,0.559 v 0 c -0.309,0 -0.56,-0.251 -0.56,-0.559 M 65.84,232.64 c 0,-0.615 0.498,-1.113 1.113,-1.113 v 0 c 0.615,0 1.113,0.498 1.113,1.113 v 0 c 0,0.615 -0.498,1.113 -1.113,1.113 v 0 c -0.615,0 -1.113,-0.498 -1.113,-1.113 m 11.91,-1.186 c 0,-0.337 0.274,-0.61 0.61,-0.61 v 0 c 0.337,0 0.611,0.273 0.611,0.61 v 0 c 0,0.336 -0.274,0.61 -0.611,0.61 v 0 c -0.336,0 -0.61,-0.274 -0.61,-0.61 m -3.968,-1.888 c 0,-0.484 0.392,-0.876 0.875,-0.876 v 0 c 0.483,0 0.875,0.392 0.875,0.876 v 0 c 0,0.483 -0.392,0.874 -0.875,0.874 v 0 c -0.483,0 -0.875,-0.391 -0.875,-0.874" id="path1944"></path></clipPath><linearGradient x1="0" y1="0" x2="1" y2="0" gradientUnits="userSpaceOnUse" gradientTransform="matrix(13.131517,0,0,-13.131517,65.839058,235.18317)" spreadMethod="pad" id="linearGradient1956"><stop style="stop-opacity:1;stop-color:#2b60a8" offset="0" id="stop1952"></stop><stop style="stop-opacity:1;stop-color:#2b44a1" offset="1" id="stop1954"></stop></linearGradient><clipPath id="clipPath1966"><path d="m 73.57,261.133 c 0,-0.432 0.351,-0.782 0.782,-0.782 v 0 c 0.432,0 0.782,0.35 0.782,0.782 v 0 c 0,0.431 -0.35,0.781 -0.782,0.781 v 0 c -0.431,0 -0.782,-0.35 -0.782,-0.781" id="path1964"></path></clipPath><linearGradient x1="0" y1="0" x2="1" y2="0" gradientUnits="userSpaceOnUse" gradientTransform="matrix(1.5639937,0,0,-1.5639937,73.569939,261.133)" spreadMethod="pad" id="linearGradient1976"><stop style="stop-opacity:1;stop-color:#2b60a8" offset="0" id="stop1972"></stop><stop style="stop-opacity:1;stop-color:#2b44a1" offset="1" id="stop1974"></stop></linearGradient><clipPath id="clipPath1986"><path d="m 65.892,258.148 c 0,-0.6 0.487,-1.087 1.087,-1.087 v 0 c 0.6,0 1.087,0.487 1.087,1.087 v 0 c 0,0.6 -0.487,1.087 -1.087,1.087 v 0 c -0.6,0 -1.087,-0.487 -1.087,-1.087" id="path1984"></path></clipPath><linearGradient x1="0" y1="0" x2="1" y2="0" gradientUnits="userSpaceOnUse" gradientTransform="matrix(2.174355,0,0,-2.174355,65.891922,258.14801)" spreadMethod="pad" id="linearGradient1996"><stop style="stop-opacity:1;stop-color:#2b60a8" offset="0" id="stop1992"></stop><stop style="stop-opacity:1;stop-color:#2b44a1" offset="1" id="stop1994"></stop></linearGradient><clipPath id="clipPath2006"><path d="m 59.035,255.28 c 0,-0.434 0.352,-0.785 0.784,-0.785 v 0 c 0.434,0 0.785,0.351 0.785,0.785 v 0 c 0,0.432 -0.351,0.784 -0.785,0.784 v 0 c -0.432,0 -0.784,-0.352 -0.784,-0.784" id="path2004"></path></clipPath><linearGradient x1="0" y1="0" x2="1" y2="0" gradientUnits="userSpaceOnUse" gradientTransform="matrix(1.5693637,0,0,-1.5693637,59.035027,255.27942)" spreadMethod="pad" id="linearGradient2016"><stop style="stop-opacity:1;stop-color:#2b60a8" offset="0" id="stop2012"></stop><stop style="stop-opacity:1;stop-color:#2b44a1" offset="1" id="stop2014"></stop></linearGradient><clipPath id="clipPath2026"><path d="m 50.801,252.097 c 0,-0.605 0.49,-1.094 1.095,-1.094 v 0 c 0.604,0 1.093,0.489 1.093,1.094 v 0 c 0,0.604 -0.489,1.095 -1.093,1.095 v 0 c -0.605,0 -1.095,-0.491 -1.095,-1.095" id="path2024"></path></clipPath><linearGradient x1="0" y1="0" x2="1" y2="0" gradientUnits="userSpaceOnUse" gradientTransform="matrix(2.1882231,0,0,-2.1882231,50.801311,252.09683)" spreadMethod="pad" id="linearGradient2036"><stop style="stop-opacity:1;stop-color:#2b60a8" offset="0" id="stop2032"></stop><stop style="stop-opacity:1;stop-color:#2b44a1" offset="1" id="stop2034"></stop></linearGradient><clipPath id="clipPath2046"><path d="m 83.075,262.511 -0.06,-3.168 c 0.636,-0.45 0.666,-1.127 0.666,-1.127 v 0 c 0.054,-0.725 -0.632,-1.306 -0.632,-1.306 v 0 l 0.026,-3.073 c 1.206,-1.133 0.99,-1.562 0.99,-1.562 v 0 c -0.001,-1.348 -1.007,-1.913 -1.007,-1.913 v 0 l 0.017,-3.064 c 0.398,-0.28 0.64,-1.153 0.64,-1.153 v 0 c -0.054,-0.894 -0.708,-1.281 -0.708,-1.281 v 0 -3.074 c 1.067,-0.933 1.058,-1.477 1.058,-1.477 v 0 c 0.154,-1.417 -1.058,-1.971 -1.058,-1.971 v 0 -3.663 c 0.5,-0.568 0.708,-1.263 0.708,-1.263 v 0 c 0.031,-0.781 -0.742,-1.503 -0.742,-1.503 v 0 l 0.059,-3.62 c 0.767,-0.299 1.076,-1.315 1.076,-1.315 v 0 l 13.548,5.542 v 12.088 l -6.138,-1.545 c 0,0 -0.063,0.117 -0.116,0.178 v 0 c -0.036,-0.064 -0.072,-0.106 -0.072,-0.016 v 0 c 0.001,0.075 0.034,0.06 0.072,0.016 v 0 c 0.037,0.065 0.074,0.155 0.074,0.155 v 0 l 13.505,5.302 0.044,-7.163 c -0.198,-0.751 -0.744,-1.494 -0.744,-1.494 v 0 c -0.741,-1.279 -0.409,-1.656 -0.409,-1.656 v 0 c 0.04,-0.836 0.956,-1.204 0.956,-1.204 v 0 c 1.351,-0.28 1.759,0.692 1.759,0.692 v 0 c 0.456,1.063 -0.042,1.757 -0.042,1.757 v 0 c -0.651,0.809 -0.88,1.665 -0.88,1.665 v 0 l -0.077,7.719 7.675,3.09 -29.206,11.696 c -0.213,-0.876 -0.982,-1.289 -0.982,-1.289" id="path2044"></path></clipPath><linearGradient x1="0" y1="0" x2="1" y2="0" gradientUnits="userSpaceOnUse" gradientTransform="matrix(30.290697,0,0,-30.290697,82.972473,245.38925)" spreadMethod="pad" id="linearGradient2056"><stop style="stop-opacity:1;stop-color:#2b60a8" offset="0" id="stop2052"></stop><stop style="stop-opacity:1;stop-color:#2b44a1" offset="1" id="stop2054"></stop></linearGradient><clipPath id="clipPath2066"><path d="m 82.008,226.978 h 0.23 v 36.216 h -0.23 z" id="path2064"></path></clipPath><linearGradient x1="0" y1="0" x2="1" y2="0" gradientUnits="userSpaceOnUse" gradientTransform="matrix(0.2305112,0,0,-0.2305112,82.007812,245.08618)" spreadMethod="pad" id="linearGradient2076"><stop style="stop-opacity:1;stop-color:#2b60a8" offset="0" id="stop2072"></stop><stop style="stop-opacity:1;stop-color:#2b44a1" offset="1" id="stop2074"></stop></linearGradient><clipPath id="clipPath2086"><path d="m 51.433,251.961 0.088,-0.213 29.627,12.052 -0.087,0.213 z" id="path2084"></path></clipPath><linearGradient x1="0" y1="0" x2="1" y2="0" gradientUnits="userSpaceOnUse" gradientTransform="matrix(29.714487,0,0,-29.714487,51.433281,257.88089)" spreadMethod="pad" id="linearGradient2096"><stop style="stop-opacity:1;stop-color:#2b60a8" offset="0" id="stop2092"></stop><stop style="stop-opacity:1;stop-color:#2b44a1" offset="1" id="stop2094"></stop></linearGradient><clipPath id="clipPath2106"><path d="m 81.046,264.234 c 0,-0.604 0.49,-1.094 1.093,-1.094 v 0 c 0.604,0 1.093,0.49 1.093,1.094 v 0 c 0,0.604 -0.489,1.093 -1.093,1.093 v 0 c -0.603,0 -1.093,-0.489 -1.093,-1.093" id="path2104"></path></clipPath><linearGradient x1="0" y1="0" x2="1" y2="0" gradientUnits="userSpaceOnUse" gradientTransform="matrix(2.1865554,0,0,-2.1865554,81.045837,264.23358)" spreadMethod="pad" id="linearGradient2116"><stop style="stop-opacity:1;stop-color:#2b60a8" offset="0" id="stop2112"></stop><stop style="stop-opacity:1;stop-color:#2b44a1" offset="1" id="stop2114"></stop></linearGradient><clipPath id="clipPath2126"><path d="m 81.469,258.148 c 0,-0.37 0.3,-0.671 0.67,-0.671 v 0 c 0.37,0 0.671,0.301 0.671,0.671 v 0 c 0,0.371 -0.301,0.67 -0.671,0.67 v 0 c -0.37,0 -0.67,-0.299 -0.67,-0.67" id="path2124"></path></clipPath><linearGradient x1="0" y1="0" x2="1" y2="0" gradientUnits="userSpaceOnUse" gradientTransform="matrix(1.3411057,0,0,-1.3411057,81.468666,258.14795)" spreadMethod="pad" id="linearGradient2136"><stop style="stop-opacity:1;stop-color:#2b60a8" offset="0" id="stop2132"></stop><stop style="stop-opacity:1;stop-color:#2b44a1" offset="1" id="stop2134"></stop></linearGradient><clipPath id="clipPath2146"><path d="m 81.046,252.133 c 0,-0.593 0.481,-1.074 1.075,-1.074 v 0 c 0.594,0 1.076,0.481 1.076,1.074 v 0 c 0,0.594 -0.482,1.076 -1.076,1.076 v 0 c -0.594,0 -1.075,-0.482 -1.075,-1.076" id="path2144"></path></clipPath><linearGradient x1="0" y1="0" x2="1" y2="0" gradientUnits="userSpaceOnUse" gradientTransform="matrix(2.1503963,0,0,-2.1503963,81.046127,252.13347)" spreadMethod="pad" id="linearGradient2156"><stop style="stop-opacity:1;stop-color:#2b60a8" offset="0" id="stop2152"></stop><stop style="stop-opacity:1;stop-color:#2b44a1" offset="1" id="stop2154"></stop></linearGradient><clipPath id="clipPath2166"><path d="m 81.42,246.09 c 0,-0.387 0.314,-0.701 0.701,-0.701 v 0 c 0.387,0 0.701,0.314 0.701,0.701 v 0 c 0,0.388 -0.314,0.701 -0.701,0.701 v 0 c -0.387,0 -0.701,-0.313 -0.701,-0.701" id="path2164"></path></clipPath><linearGradient x1="0" y1="0" x2="1" y2="0" gradientUnits="userSpaceOnUse" gradientTransform="matrix(1.4016546,0,0,-1.4016546,81.420532,246.09009)" spreadMethod="pad" id="linearGradient2176"><stop style="stop-opacity:1;stop-color:#2b60a8" offset="0" id="stop2172"></stop><stop style="stop-opacity:1;stop-color:#2b44a1" offset="1" id="stop2174"></stop></linearGradient><clipPath id="clipPath2186"><path d="m 81.061,240.06 c 0,-0.596 0.483,-1.079 1.078,-1.079 v 0 c 0.595,0 1.078,0.483 1.078,1.079 v 0 c 0,0.596 -0.483,1.078 -1.078,1.078 v 0 c -0.595,0 -1.078,-0.482 -1.078,-1.078" id="path2184"></path></clipPath><linearGradient x1="0" y1="0" x2="1" y2="0" gradientUnits="userSpaceOnUse" gradientTransform="matrix(2.1565676,0,0,-2.1565676,81.060791,240.05977)" spreadMethod="pad" id="linearGradient2196"><stop style="stop-opacity:1;stop-color:#2b60a8" offset="0" id="stop2192"></stop><stop style="stop-opacity:1;stop-color:#2b44a1" offset="1" id="stop2194"></stop></linearGradient><clipPath id="clipPath2206"><path d="m 81.428,233.351 c 0,-0.393 0.318,-0.711 0.711,-0.711 v 0 c 0.393,0 0.711,0.318 0.711,0.711 v 0 c 0,0.392 -0.318,0.71 -0.711,0.71 v 0 c -0.393,0 -0.711,-0.318 -0.711,-0.71" id="path2204"></path></clipPath><linearGradient x1="0" y1="0" x2="1" y2="0" gradientUnits="userSpaceOnUse" gradientTransform="matrix(1.4214727,0,0,-1.4214727,81.428375,233.35069)" spreadMethod="pad" id="linearGradient2216"><stop style="stop-opacity:1;stop-color:#2b60a8" offset="0" id="stop2212"></stop><stop style="stop-opacity:1;stop-color:#2b44a1" offset="1" id="stop2214"></stop></linearGradient><clipPath id="clipPath2226"><path d="m 80.997,226.645 c 0,-0.631 0.511,-1.142 1.142,-1.142 v 0 c 0.631,0 1.143,0.511 1.143,1.142 v 0 c 0,0.63 -0.512,1.141 -1.143,1.141 v 0 c -0.631,0 -1.142,-0.511 -1.142,-1.141" id="path2224"></path></clipPath><linearGradient x1="0" y1="0" x2="1" y2="0" gradientUnits="userSpaceOnUse" gradientTransform="matrix(2.2836208,0,0,-2.2836208,80.997337,226.64491)" spreadMethod="pad" id="linearGradient2236"><stop style="stop-opacity:1;stop-color:#2b60a8" offset="0" id="stop2232"></stop><stop style="stop-opacity:1;stop-color:#2b44a1" offset="1" id="stop2234"></stop></linearGradient><clipPath id="clipPath2246"><path d="m 91.3,243.222 0.006,-0.042 c 0,0 0.043,-0.024 0.044,-0.024 v 0 c 0.002,0 0.036,0.034 0.036,0.034 v 0 l 0.017,0.041 -0.003,0.022 v 0.024 l -0.007,0.032 -0.023,0.006 z" id="path2244"></path></clipPath><linearGradient x1="0" y1="0" x2="1" y2="0" gradientUnits="userSpaceOnUse" gradientTransform="matrix(0.1038208,0,0,-0.1038208,91.299049,243.23547)" spreadMethod="pad" id="linearGradient2256"><stop style="stop-opacity:1;stop-color:#2b60a8" offset="0" id="stop2252"></stop><stop style="stop-opacity:1;stop-color:#2b44a1" offset="1" id="stop2254"></stop></linearGradient><clipPath id="clipPath28"><path id="path26" d="M 3,7 H 557 V 70 H 3 Z"></path></clipPath><clipPath id="clipPath34"><path id="path32" d="M 62.688,44.113 H 10.547 V 32.801 h 46.297 z m 9.078,24.969 H 10.547 V 57.723 H 65.875 Z M 71.797,18.957 H 9.375 L 3.516,7.645 h 62.359 c 1.969,3.781 3.941,7.554 5.922,11.312 z m 68.508,50.125 H 87.758 l -5.86,-11.328 h 56.094 c 1.031,0 1.867,-0.316 2.516,-0.953 0.738,-0.75 1.269,-1.711 1.594,-2.891 0.3,-1.031 0.453,-2.066 0.453,-3.109 0,-1.125 -0.149,-2.219 -0.438,-3.281 -0.281,-1.063 -0.793,-1.915 -1.531,-2.563 -0.625,-0.582 -1.492,-0.875 -2.594,-0.875 H 91.945 c -1.937,0 -3.672,-0.57 -5.203,-1.719 -1.406,-1.039 -2.605,-2.441 -3.594,-4.203 -1.968,-3.57 -2.953,-7.742 -2.953,-12.515 0,-2.426 0.301,-4.75 0.907,-6.969 1.039,-4.313 2.929,-7.469 5.671,-9.469 1.477,-1.039 3.204,-1.562 5.172,-1.562 h 52.485 c 2.031,3.761 4.023,7.531 5.984,11.312 H 94.336 c -0.625,0 -1.121,0.078 -1.484,0.234 -0.356,0.149 -0.715,0.403 -1.079,0.766 -0.742,0.75 -1.261,1.727 -1.562,2.922 l -0.031,0.156 c -0.325,0.906 -0.485,1.899 -0.485,2.969 0,1.094 0.145,2.148 0.438,3.156 v 0.047 c 0.301,1.094 0.801,1.977 1.5,2.641 0.625,0.605 1.488,0.906 2.594,0.906 h 46.078 c 2.812,0 5.25,1.242 7.312,3.719 1.676,2.086 2.883,4.726 3.625,7.922 0.531,2.273 0.797,4.605 0.797,7 0,2.886 -0.422,5.632 -1.266,8.234 -0.835,2.594 -2.121,4.809 -3.859,6.641 -1.867,1.875 -4.07,2.812 -6.609,2.812 z m 90.289,0 h -47.266 l -5.844,-11.359 h 43.141 V 44.113 H 192.922 V 32.754 h 37.672 z M 170.141,33.113 v 11 h -9.797 V 33.52 c 0,-2.239 0.238,-4.438 0.718,-6.594 0.489,-2.164 1.196,-4.219 2.126,-6.156 0.945,-1.926 2.082,-3.688 3.406,-5.282 1.32,-1.601 2.804,-3.004 4.453,-4.203 1.656,-1.195 3.453,-2.101 5.391,-2.719 1.937,-0.613 3.957,-0.921 6.062,-0.921 h 40.234 l 0.516,1 3.734,7.234 1.594,3.078 h -45.875 c -1.18,0 -2.262,0.152 -3.25,0.453 -0.992,0.293 -1.98,0.774 -2.969,1.438 -1,0.636 -1.871,1.359 -2.609,2.172 -0.742,0.812 -1.406,1.781 -2,2.906 -0.605,1.117 -1.047,2.242 -1.328,3.375 -0.274,1.137 -0.406,2.406 -0.406,3.812 z m 87.757,35.969 h -9.796 V 7.645 h 9.796 z m 45.735,0 h -9.906 l 0.031,-50.078 h -24.016 l -5.89,-11.359 h 64.562 l 5.891,11.359 h -30.641 z m 95.82,-24.969 H 347.312 V 32.801 h 46.297 z m 9.078,24.969 H 347.312 V 57.723 h 55.329 z m 0.031,-50.125 h -62.421 l -5.86,-11.312 h 62.36 c 1.968,3.781 3.941,7.554 5.921,11.312 z m 70.485,50.125 h -40.891 c -3.968,0 -7.246,-0.828 -9.828,-2.484 -2.824,-1.789 -5.156,-4.114 -7,-6.969 -3.855,-5.988 -5.781,-13.102 -5.781,-21.344 0,-8.32 1.914,-15.457 5.75,-21.406 1.988,-3.031 4.398,-5.328 7.234,-6.891 2.844,-1.562 6.016,-2.343 9.516,-2.343 h 33.172 l 5.859,11.312 h -38.75 c -1.75,0 -3.289,0.309 -4.609,0.922 -1.313,0.617 -2.559,1.605 -3.735,2.969 -3.343,3.867 -5.015,9.168 -5.015,15.906 0,4.324 0.863,8.219 2.593,11.687 1.083,2.188 2.536,3.95 4.36,5.282 1.82,1.336 3.969,2 6.437,2 h 40.688 z m 77.683,0 h -9.828 V 43.645 h -46.297 v 25.437 h -9.828 V 7.645 h 9.828 v 25.718 h 46.297 V 7.645 h 9.828 z M 228.691,69.027 h -44.515 c -4.324,0 -7.891,-0.824 -10.703,-2.468 -3.063,-1.782 -5.602,-4.098 -7.61,-6.954 -4.199,-5.976 -6.297,-13.082 -6.297,-21.312 0,-8.301 2.082,-15.422 6.25,-21.359 2.164,-3.032 4.789,-5.321 7.875,-6.875 3.094,-1.563 6.551,-2.344 10.375,-2.344 h 36.11 l 6.359,11.297 h -42.172 c -1.906,0 -3.578,0.308 -5.015,0.922 -1.43,0.617 -2.782,1.601 -4.063,2.953 -3.648,3.855 -5.469,9.152 -5.469,15.89 0,4.313 0.942,8.2 2.829,11.657 1.175,2.179 2.753,3.933 4.734,5.265 1.988,1.336 4.328,2 7.016,2 h 44.296 z"></path></clipPath><clipPath id="clipPath44"><path id="path42" d="M 0,0 H 560 V 137 H 0 Z"></path></clipPath></defs><g id="layer1"><g id="g6296" transform="matrix(7.7429616,0,0,7.7429616,-93.464863,-1799.861)" style="fill:#ffffff;fill-opacity:1"><g id="g1240" transform="matrix(0.35277777,0,0,-0.35277777,-3.2366891,327.5023)" style="fill:#ffffff;fill-opacity:1"><g clip-path="url(#clipPath1246)" id="g1242" style="fill:#ffffff;fill-opacity:1"><g id="g1248" style="fill:#ffffff;fill-opacity:1"><g id="g1250" style="fill:#ffffff;fill-opacity:1"><path id="path1258" style="fill:#ffffff;fill-opacity:1;stroke:none" d="m 74.897,243.248 0.086,-0.214 6.906,2.751 -0.085,0.215 z"></path></g></g></g></g><g id="g1260" transform="matrix(0.35277777,0,0,-0.35277777,-3.2366891,327.5023)" style="fill:#ffffff;fill-opacity:1"><g clip-path="url(#clipPath1266)" id="g1262" style="fill:#ffffff;fill-opacity:1"><g id="g1268" style="fill:#ffffff;fill-opacity:1"><g id="g1270" style="fill:#ffffff;fill-opacity:1"><path id="path1278" style="fill:#ffffff;fill-opacity:1;stroke:none" d="m 74.842,243.78 0.239,-0.116 2.375,4.885 -0.239,0.116 z"></path></g></g></g></g><g id="g1280" transform="matrix(0.35277777,0,0,-0.35277777,-3.2366891,327.5023)" style="fill:#ffffff;fill-opacity:1"><g clip-path="url(#clipPath1286)" id="g1282" style="fill:#ffffff;fill-opacity:1"><g id="g1288" style="fill:#ffffff;fill-opacity:1"><g id="g1290" style="fill:#ffffff;fill-opacity:1"><path id="path1298" style="fill:#ffffff;fill-opacity:1;stroke:none" d="m 72.247,250.89 1.954,-7.11 0.264,0.072 -1.954,7.11 z"></path></g></g></g></g><g id="g1300" transform="matrix(0.35277777,0,0,-0.35277777,-3.2366891,327.5023)" style="fill:#ffffff;fill-opacity:1"><g clip-path="url(#clipPath1306)" id="g1302" style="fill:#ffffff;fill-opacity:1"><g id="g1308" style="fill:#ffffff;fill-opacity:1"><g id="g1310" style="fill:#ffffff;fill-opacity:1"><path id="path1318" style="fill:#ffffff;fill-opacity:1;stroke:none" d="m 73.151,251.387 8.411,-5.233 0.139,0.225 -8.41,5.232 z"></path></g></g></g></g><g id="g1320" transform="matrix(0.35277777,0,0,-0.35277777,-3.2366891,327.5023)" style="fill:#ffffff;fill-opacity:1"><g clip-path="url(#clipPath1326)" id="g1322" style="fill:#ffffff;fill-opacity:1"><g id="g1328" style="fill:#ffffff;fill-opacity:1"><g id="g1330" style="fill:#ffffff;fill-opacity:1"><path id="path1338" style="fill:#ffffff;fill-opacity:1;stroke:none" d="m 74.941,242.374 6.783,-8.786 0.256,0.199 -6.782,8.785 z"></path></g></g></g></g><g id="g1340" transform="matrix(0.35277777,0,0,-0.35277777,-3.2366891,327.5023)" style="fill:#ffffff;fill-opacity:1"><g clip-path="url(#clipPath1346)" id="g1342" style="fill:#ffffff;fill-opacity:1"><g id="g1348" style="fill:#ffffff;fill-opacity:1"><g id="g1350" style="fill:#ffffff;fill-opacity:1"><path id="path1358" style="fill:#ffffff;fill-opacity:1;stroke:none" d="m 67.017,239.491 0.155,-0.322 7.485,3.617 -0.156,0.322 z"></path></g></g></g></g><g id="g1360" transform="matrix(0.35277777,0,0,-0.35277777,-3.2366891,327.5023)" style="fill:#ffffff;fill-opacity:1"><g clip-path="url(#clipPath1366)" id="g1362" style="fill:#ffffff;fill-opacity:1"><g id="g1368" style="fill:#ffffff;fill-opacity:1"><g id="g1370" style="fill:#ffffff;fill-opacity:1"><path id="path1378" style="fill:#ffffff;fill-opacity:1;stroke:none" d="m 74.953,229.823 0.119,-0.236 7.12,3.588 -0.119,0.236 z"></path></g></g></g></g><g id="g1380" transform="matrix(0.35277777,0,0,-0.35277777,-3.2366891,327.5023)" style="fill:#ffffff;fill-opacity:1"><g clip-path="url(#clipPath1386)" id="g1382" style="fill:#ffffff;fill-opacity:1"><g id="g1388" style="fill:#ffffff;fill-opacity:1"><g id="g1390" style="fill:#ffffff;fill-opacity:1"><path id="path1398" style="fill:#ffffff;fill-opacity:1;stroke:none" d="m 66.848,239.166 7.666,-9.499 0.178,0.144 -7.665,9.499 z"></path></g></g></g></g><g id="g1400" transform="matrix(0.35277777,0,0,-0.35277777,-3.2366891,327.5023)" style="fill:#ffffff;fill-opacity:1"><g clip-path="url(#clipPath1406)" id="g1402" style="fill:#ffffff;fill-opacity:1"><g id="g1408" style="fill:#ffffff;fill-opacity:1"><g id="g1410" style="fill:#ffffff;fill-opacity:1"><path id="path1418" style="fill:#ffffff;fill-opacity:1;stroke:none" d="m 67.407,239.005 14.585,-5.864 0.135,0.335 -14.586,5.864 z"></path></g></g></g></g><g id="g1420" transform="matrix(0.35277777,0,0,-0.35277777,-3.2366891,327.5023)" style="fill:#ffffff;fill-opacity:1"><g clip-path="url(#clipPath1426)" id="g1422" style="fill:#ffffff;fill-opacity:1"><g id="g1428" style="fill:#ffffff;fill-opacity:1"><g id="g1430" style="fill:#ffffff;fill-opacity:1"><path id="path1438" style="fill:#ffffff;fill-opacity:1;stroke:none" d="m 67.234,245.568 14.537,-18.519 0.167,0.131 -14.537,18.518 z"></path></g></g></g></g><g id="g1440" transform="matrix(0.35277777,0,0,-0.35277777,-3.2366891,327.5023)" style="fill:#ffffff;fill-opacity:1"><g clip-path="url(#clipPath1446)" id="g1442" style="fill:#ffffff;fill-opacity:1"><g id="g1448" style="fill:#ffffff;fill-opacity:1"><g id="g1450" style="fill:#ffffff;fill-opacity:1"><path id="path1458" style="fill:#ffffff;fill-opacity:1;stroke:none" d="m 77.72,249.125 0.112,-0.159 3.596,2.518 -0.111,0.16 z"></path></g></g></g></g><g id="g1460" transform="matrix(0.35277777,0,0,-0.35277777,-3.2366891,327.5023)" style="fill:#ffffff;fill-opacity:1"><g clip-path="url(#clipPath1466)" id="g1462" style="fill:#ffffff;fill-opacity:1"><g id="g1468" style="fill:#ffffff;fill-opacity:1"><g id="g1470" style="fill:#ffffff;fill-opacity:1"><path id="path1478" style="fill:#ffffff;fill-opacity:1;stroke:none" d="m 74.478,230.069 h 0.299 v 12.61 h -0.299 z"></path></g></g></g></g><g id="g1480" transform="matrix(0.35277777,0,0,-0.35277777,-3.2366891,327.5023)" style="fill:#ffffff;fill-opacity:1"><g clip-path="url(#clipPath1486)" id="g1482" style="fill:#ffffff;fill-opacity:1"><g id="g1488" style="fill:#ffffff;fill-opacity:1"><g id="g1490" style="fill:#ffffff;fill-opacity:1"><path id="path1498" style="fill:#ffffff;fill-opacity:1;stroke:none" d="m 73.709,247.81 0.077,-0.214 3.245,1.034 -0.043,0.153 z"></path></g></g></g></g><g id="g1500" transform="matrix(0.35277777,0,0,-0.35277777,-3.2366891,327.5023)" style="fill:#ffffff;fill-opacity:1"><g clip-path="url(#clipPath1506)" id="g1502" style="fill:#ffffff;fill-opacity:1"><g id="g1508" style="fill:#ffffff;fill-opacity:1"><g id="g1510" style="fill:#ffffff;fill-opacity:1"><path id="path1518" style="fill:#ffffff;fill-opacity:1;stroke:none" d="m 67.596,246.87 0.154,-0.136 3.561,4.337 -0.145,0.128 z"></path></g></g></g></g><g id="g1520" transform="matrix(0.35277777,0,0,-0.35277777,-3.2366891,327.5023)" style="fill:#ffffff;fill-opacity:1"><g clip-path="url(#clipPath1526)" id="g1522" style="fill:#ffffff;fill-opacity:1"><g id="g1528" style="fill:#ffffff;fill-opacity:1"><g id="g1530" style="fill:#ffffff;fill-opacity:1"><path id="path1538" style="fill:#ffffff;fill-opacity:1;stroke:none" d="m 67.016,246.221 0.048,-0.208 6.416,1.466 -0.047,0.209 z"></path></g></g></g></g><g id="g1540" transform="matrix(0.35277777,0,0,-0.35277777,-3.2366891,327.5023)" style="fill:#ffffff;fill-opacity:1"><g clip-path="url(#clipPath1546)" id="g1542" style="fill:#ffffff;fill-opacity:1"><g id="g1548" style="fill:#ffffff;fill-opacity:1"><g id="g1550" style="fill:#ffffff;fill-opacity:1"><path id="path1558" style="fill:#ffffff;fill-opacity:1;stroke:none" d="M 52.955,252.044 H 81.35 v 0.162 H 52.955 Z"></path></g></g></g></g><g id="g1560" transform="matrix(0.35277777,0,0,-0.35277777,-3.2366891,327.5023)" style="fill:#ffffff;fill-opacity:1"><g clip-path="url(#clipPath1566)" id="g1562" style="fill:#ffffff;fill-opacity:1"><g id="g1568" style="fill:#ffffff;fill-opacity:1"><g id="g1570" style="fill:#ffffff;fill-opacity:1"><path id="path1578" style="fill:#ffffff;fill-opacity:1;stroke:none" d="m 67.596,257.371 3.553,-4.328 0.154,0.17 -3.57,4.295 z"></path></g></g></g></g><g id="g1580" transform="matrix(0.35277777,0,0,-0.35277777,-3.2366891,327.5023)" style="fill:#ffffff;fill-opacity:1"><g clip-path="url(#clipPath1586)" id="g1582" style="fill:#ffffff;fill-opacity:1"><g id="g1588" style="fill:#ffffff;fill-opacity:1"><g id="g1590" style="fill:#ffffff;fill-opacity:1"><path id="path1598" style="fill:#ffffff;fill-opacity:1;stroke:none" d="m 62.858,252.941 0.12,-0.137 3.483,4.542 -0.145,0.068 z"></path></g></g></g></g><g id="g1600" transform="matrix(0.35277777,0,0,-0.35277777,-3.2366891,327.5023)" style="fill:#ffffff;fill-opacity:1"><g clip-path="url(#clipPath1606)" id="g1602" style="fill:#ffffff;fill-opacity:1"><g id="g1608" style="fill:#ffffff;fill-opacity:1"><g id="g1610" style="fill:#ffffff;fill-opacity:1"><path id="path1618" style="fill:#ffffff;fill-opacity:1;stroke:none" d="m 60.204,254.696 6.144,-7.902 0.113,0.104 -6.084,7.921 z"></path></g></g></g></g><g id="g1620" transform="matrix(0.35277777,0,0,-0.35277777,-3.2366891,327.5023)" style="fill:#ffffff;fill-opacity:1"><g clip-path="url(#clipPath1626)" id="g1622" style="fill:#ffffff;fill-opacity:1"><g id="g1628" style="fill:#ffffff;fill-opacity:1"><g id="g1630" style="fill:#ffffff;fill-opacity:1"><path id="path1638" style="fill:#ffffff;fill-opacity:1;stroke:none" d="m 60.204,249.619 0.127,-0.11 1.417,1.81 -0.162,0.068 z"></path></g></g></g></g><g id="g1640" transform="matrix(0.35277777,0,0,-0.35277777,-3.2366891,327.5023)" style="fill:#ffffff;fill-opacity:1"><g clip-path="url(#clipPath1646)" id="g1642" style="fill:#ffffff;fill-opacity:1"><g id="g1648" style="fill:#ffffff;fill-opacity:1"><g id="g1650" style="fill:#ffffff;fill-opacity:1"><path id="path1658" style="fill:#ffffff;fill-opacity:1;stroke:none" d="m 66.239,232.4 0.112,-0.229 16.582,8.11 -0.111,0.229 z"></path></g></g></g></g><g id="g1660" transform="matrix(0.35277777,0,0,-0.35277777,-3.2366891,327.5023)" style="fill:#ffffff;fill-opacity:1"><g clip-path="url(#clipPath1666)" id="g1662" style="fill:#ffffff;fill-opacity:1"><g id="g1668" style="fill:#ffffff;fill-opacity:1"><g id="g1670" style="fill:#ffffff;fill-opacity:1"><path id="path1678" style="fill:#ffffff;fill-opacity:1;stroke:none" d="m 66.567,232.756 15.108,-6.032 0.06,0.151 -15.108,6.032 z"></path></g></g></g></g><g id="g1680" transform="matrix(0.35277777,0,0,-0.35277777,-3.2366891,327.5023)" style="fill:#ffffff;fill-opacity:1"><g clip-path="url(#clipPath1686)" id="g1682" style="fill:#ffffff;fill-opacity:1"><g id="g1688" style="fill:#ffffff;fill-opacity:1"><g id="g1690" style="fill:#ffffff;fill-opacity:1"><path id="path1698" style="fill:#ffffff;fill-opacity:1;stroke:none" d="m 66.897,233.083 h 0.196 v 24.092 h -0.196 z"></path></g></g></g></g><g id="g1700" transform="matrix(0.35277777,0,0,-0.35277777,-3.2366891,327.5023)" style="fill:#ffffff;fill-opacity:1"><g clip-path="url(#clipPath1706)" id="g1702" style="fill:#ffffff;fill-opacity:1"><g id="g1708" style="fill:#ffffff;fill-opacity:1"><g id="g1710" style="fill:#ffffff;fill-opacity:1"><path id="path1718" style="fill:#ffffff;fill-opacity:1;stroke:none" d="m 52.757,251.635 28.648,-11.438 0.073,0.182 -28.649,11.438 z"></path></g></g></g></g><g id="g1720" transform="matrix(0.35277777,0,0,-0.35277777,-3.2366891,327.5023)" style="fill:#ffffff;fill-opacity:1"><g clip-path="url(#clipPath1726)" id="g1722" style="fill:#ffffff;fill-opacity:1"><g id="g1728" style="fill:#ffffff;fill-opacity:1"><g id="g1730" style="fill:#ffffff;fill-opacity:1"><path id="path1738" style="fill:#ffffff;fill-opacity:1;stroke:none" d="m 74.723,260.658 6.777,-7.825 0.124,0.105 -6.778,7.826 z"></path></g></g></g></g><g id="g1740" transform="matrix(0.35277777,0,0,-0.35277777,-3.2366891,327.5023)" style="fill:#ffffff;fill-opacity:1"><g clip-path="url(#clipPath1746)" id="g1742" style="fill:#ffffff;fill-opacity:1"><g id="g1748" style="fill:#ffffff;fill-opacity:1"><g id="g1750" style="fill:#ffffff;fill-opacity:1"><path id="path1758" style="fill:#ffffff;fill-opacity:1;stroke:none" d="m 67.784,258.029 h 13.839 v 0.256 H 67.784 Z"></path></g></g></g></g><g id="g1760" transform="matrix(0.35277777,0,0,-0.35277777,-3.2366891,327.5023)" style="fill:#ffffff;fill-opacity:1"><g clip-path="url(#clipPath1766)" id="g1762" style="fill:#ffffff;fill-opacity:1"><g id="g1768" style="fill:#ffffff;fill-opacity:1"><g id="g1770" style="fill:#ffffff;fill-opacity:1"><path id="path1778" style="fill:#ffffff;fill-opacity:1;stroke:none" d="m 67.727,257.737 13.568,-5.475 0.096,0.237 -13.569,5.476 z"></path></g></g></g></g><g id="g1780" transform="matrix(0.35277777,0,0,-0.35277777,-3.2366891,327.5023)" style="fill:#ffffff;fill-opacity:1"><g clip-path="url(#clipPath1786)" id="g1782" style="fill:#ffffff;fill-opacity:1"><g id="g1788" style="fill:#ffffff;fill-opacity:1"><g id="g1790" style="fill:#ffffff;fill-opacity:1"><path id="path1798" style="fill:#ffffff;fill-opacity:1;stroke:none" d="m 72.864,253.239 0.129,-0.102 8.631,10.356 -0.12,0.12 z"></path></g></g></g></g><g id="g1800" transform="matrix(0.35277777,0,0,-0.35277777,-3.2366891,327.5023)" style="fill:#ffffff;fill-opacity:1"><g clip-path="url(#clipPath1806)" id="g1802" style="fill:#ffffff;fill-opacity:1"><g id="g1808" style="fill:#ffffff;fill-opacity:1"><g id="g1810" style="fill:#ffffff;fill-opacity:1"><path id="path1818" style="fill:#ffffff;fill-opacity:1;stroke:none" d="m 76.233,258.148 c 0,-0.471 0.381,-0.852 0.852,-0.852 v 0 c 0.471,0 0.852,0.381 0.852,0.852 v 0 c 0,0.471 -0.381,0.852 -0.852,0.852 v 0 c -0.471,0 -0.852,-0.381 -0.852,-0.852 m -2.22,-3.025 c 0,-0.294 0.24,-0.534 0.534,-0.534 v 0 c 0.294,0 0.534,0.24 0.534,0.534 v 0 c 0,0.294 -0.24,0.534 -0.534,0.534 v 0 c -0.295,0 -0.534,-0.24 -0.534,-0.534"></path></g></g></g></g><g id="g1820" transform="matrix(0.35277777,0,0,-0.35277777,-3.2366891,327.5023)" style="fill:#ffffff;fill-opacity:1"><g clip-path="url(#clipPath1826)" id="g1822" style="fill:#ffffff;fill-opacity:1"><g id="g1828" style="fill:#ffffff;fill-opacity:1"><g id="g1830" style="fill:#ffffff;fill-opacity:1"><path id="path1838" style="fill:#ffffff;fill-opacity:1;stroke:none" d="m 70.651,252.097 c 0,-0.786 0.636,-1.422 1.421,-1.422 v 0 c 0.786,0 1.422,0.636 1.422,1.422 v 0 c 0,0.785 -0.636,1.421 -1.422,1.421 v 0 c -0.785,0 -1.421,-0.636 -1.421,-1.421"></path></g></g></g></g><g id="g1840" transform="matrix(0.35277777,0,0,-0.35277777,-3.2366891,327.5023)" style="fill:#ffffff;fill-opacity:1"><g clip-path="url(#clipPath1846)" id="g1842" style="fill:#ffffff;fill-opacity:1"><g id="g1848" style="fill:#ffffff;fill-opacity:1"><g id="g1850" style="fill:#ffffff;fill-opacity:1"><path id="path1858" style="fill:#ffffff;fill-opacity:1;stroke:none" d="m 61.223,252.146 c 0,-0.587 0.477,-1.063 1.063,-1.063 v 0 c 0.587,0 1.063,0.476 1.063,1.063 v 0 c 0,0.587 -0.476,1.063 -1.063,1.063 v 0 c -0.586,0 -1.063,-0.476 -1.063,-1.063 m 5.184,-0.049 c 0,-0.316 0.256,-0.572 0.572,-0.572 v 0 c 0.316,0 0.572,0.256 0.572,0.572 v 0 c 0,0.316 -0.256,0.573 -0.572,0.573 v 0 c -0.316,0 -0.572,-0.257 -0.572,-0.573"></path></g></g></g></g><g id="g1860" transform="matrix(0.35277777,0,0,-0.35277777,-3.2366891,327.5023)" style="fill:#ffffff;fill-opacity:1"><g clip-path="url(#clipPath1866)" id="g1862" style="fill:#ffffff;fill-opacity:1"><g id="g1868" style="fill:#ffffff;fill-opacity:1"><g id="g1870" style="fill:#ffffff;fill-opacity:1"><path id="path1878" style="fill:#ffffff;fill-opacity:1;stroke:none" d="m 58.965,248.932 c 0,-0.453 0.368,-0.82 0.82,-0.82 v 0 c 0.453,0 0.819,0.367 0.819,0.82 v 0 c 0,0.453 -0.366,0.819 -0.819,0.819 v 0 c -0.452,0 -0.82,-0.366 -0.82,-0.819"></path></g></g></g></g><g id="g1880" transform="matrix(0.35277777,0,0,-0.35277777,-3.2366891,327.5023)" style="fill:#ffffff;fill-opacity:1"><g clip-path="url(#clipPath1886)" id="g1882" style="fill:#ffffff;fill-opacity:1"><g id="g1888" style="fill:#ffffff;fill-opacity:1"><g id="g1890" style="fill:#ffffff;fill-opacity:1"><path id="path1898" style="fill:#ffffff;fill-opacity:1;stroke:none" d="m 65.855,246.09 c 0,-0.611 0.495,-1.106 1.106,-1.106 v 0 c 0.61,0 1.105,0.495 1.105,1.106 v 0 c 0,0.611 -0.495,1.106 -1.105,1.106 v 0 c -0.611,0 -1.106,-0.495 -1.106,-1.106"></path></g></g></g></g><g id="g1900" transform="matrix(0.35277777,0,0,-0.35277777,-3.2366891,327.5023)" style="fill:#ffffff;fill-opacity:1"><g clip-path="url(#clipPath1906)" id="g1902" style="fill:#ffffff;fill-opacity:1"><g id="g1908" style="fill:#ffffff;fill-opacity:1"><g id="g1910" style="fill:#ffffff;fill-opacity:1"><path id="path1918" style="fill:#ffffff;fill-opacity:1;stroke:none" d="m 72.718,247.54 c 0,-0.315 0.257,-0.572 0.573,-0.572 v 0 c 0.316,0 0.572,0.257 0.572,0.572 v 0 c 0,0.316 -0.256,0.572 -0.572,0.572 v 0 c -0.316,0 -0.573,-0.256 -0.573,-0.572"></path></g></g></g></g><g id="g1920" transform="matrix(0.35277777,0,0,-0.35277777,-3.2366891,327.5023)" style="fill:#ffffff;fill-opacity:1"><g clip-path="url(#clipPath1926)" id="g1922" style="fill:#ffffff;fill-opacity:1"><g id="g1928" style="fill:#ffffff;fill-opacity:1"><g id="g1930" style="fill:#ffffff;fill-opacity:1"><path id="path1938" style="fill:#ffffff;fill-opacity:1;stroke:none" d="m 76.932,248.873 c 0,-0.292 0.238,-0.529 0.529,-0.529 v 0 c 0.293,0 0.529,0.237 0.529,0.529 v 0 c 0,0.292 -0.236,0.53 -0.529,0.53 v 0 c -0.291,0 -0.529,-0.238 -0.529,-0.53 m -3.15,-5.828 c 0,-0.464 0.376,-0.842 0.841,-0.842 v 0 c 0.464,0 0.84,0.378 0.84,0.842 v 0 c 0,0.464 -0.376,0.841 -0.84,0.841 v 0 c -0.465,0 -0.841,-0.377 -0.841,-0.841"></path></g></g></g></g><g id="g1940" transform="matrix(0.35277777,0,0,-0.35277777,-3.2366891,327.5023)" style="fill:#ffffff;fill-opacity:1"><g clip-path="url(#clipPath1946)" id="g1942" style="fill:#ffffff;fill-opacity:1"><g id="g1948" style="fill:#ffffff;fill-opacity:1"><g id="g1950" style="fill:#ffffff;fill-opacity:1"><path id="path1958" style="fill:#ffffff;fill-opacity:1;stroke:none" d="m 70.259,241.138 c 0,-0.297 0.242,-0.537 0.539,-0.537 v 0 c 0.296,0 0.537,0.24 0.537,0.537 v 0 c 0,0.297 -0.241,0.538 -0.537,0.538 v 0 c -0.297,0 -0.539,-0.241 -0.539,-0.538 m -4.086,-1.885 c 0,-0.445 0.36,-0.807 0.806,-0.807 v 0 c 0.445,0 0.807,0.362 0.807,0.807 v 0 c 0,0.446 -0.362,0.807 -0.807,0.807 v 0 c -0.446,0 -0.806,-0.361 -0.806,-0.807 m 11.611,-1.109 c 0,-0.319 0.258,-0.577 0.576,-0.577 v 0 c 0.319,0 0.576,0.258 0.576,0.577 v 0 c 0,0.317 -0.257,0.576 -0.576,0.576 v 0 c -0.318,0 -0.576,-0.259 -0.576,-0.576 m -4.493,-1.774 c 0,-0.775 0.629,-1.404 1.404,-1.404 v 0 c 0.776,0 1.405,0.629 1.405,1.404 v 0 c 0,0.775 -0.629,1.405 -1.405,1.405 v 0 c -0.775,0 -1.404,-0.63 -1.404,-1.405 m -3.075,-1.963 c 0,-0.31 0.251,-0.56 0.56,-0.56 v 0 c 0.309,0 0.559,0.25 0.559,0.56 v 0 c 0,0.308 -0.25,0.559 -0.559,0.559 v 0 c -0.309,0 -0.56,-0.251 -0.56,-0.559 M 65.84,232.64 c 0,-0.615 0.498,-1.113 1.113,-1.113 v 0 c 0.615,0 1.113,0.498 1.113,1.113 v 0 c 0,0.615 -0.498,1.113 -1.113,1.113 v 0 c -0.615,0 -1.113,-0.498 -1.113,-1.113 m 11.91,-1.186 c 0,-0.337 0.274,-0.61 0.61,-0.61 v 0 c 0.337,0 0.611,0.273 0.611,0.61 v 0 c 0,0.336 -0.274,0.61 -0.611,0.61 v 0 c -0.336,0 -0.61,-0.274 -0.61,-0.61 m -3.968,-1.888 c 0,-0.484 0.392,-0.876 0.875,-0.876 v 0 c 0.483,0 0.875,0.392 0.875,0.876 v 0 c 0,0.483 -0.392,0.874 -0.875,0.874 v 0 c -0.483,0 -0.875,-0.391 -0.875,-0.874"></path></g></g></g></g><g id="g1960" transform="matrix(0.35277777,0,0,-0.35277777,-3.2366891,327.5023)" style="fill:#ffffff;fill-opacity:1"><g clip-path="url(#clipPath1966)" id="g1962" style="fill:#ffffff;fill-opacity:1"><g id="g1968" style="fill:#ffffff;fill-opacity:1"><g id="g1970" style="fill:#ffffff;fill-opacity:1"><path id="path1978" style="fill:#ffffff;fill-opacity:1;stroke:none" d="m 73.57,261.133 c 0,-0.432 0.351,-0.782 0.782,-0.782 v 0 c 0.432,0 0.782,0.35 0.782,0.782 v 0 c 0,0.431 -0.35,0.781 -0.782,0.781 v 0 c -0.431,0 -0.782,-0.35 -0.782,-0.781"></path></g></g></g></g><g id="g1980" transform="matrix(0.35277777,0,0,-0.35277777,-3.2366891,327.5023)" style="fill:#ffffff;fill-opacity:1"><g clip-path="url(#clipPath1986)" id="g1982" style="fill:#ffffff;fill-opacity:1"><g id="g1988" style="fill:#ffffff;fill-opacity:1"><g id="g1990" style="fill:#ffffff;fill-opacity:1"><path id="path1998" style="fill:#ffffff;fill-opacity:1;stroke:none" d="m 65.892,258.148 c 0,-0.6 0.487,-1.087 1.087,-1.087 v 0 c 0.6,0 1.087,0.487 1.087,1.087 v 0 c 0,0.6 -0.487,1.087 -1.087,1.087 v 0 c -0.6,0 -1.087,-0.487 -1.087,-1.087"></path></g></g></g></g><g id="g2000" transform="matrix(0.35277777,0,0,-0.35277777,-3.2366891,327.5023)" style="fill:#ffffff;fill-opacity:1"><g clip-path="url(#clipPath2006)" id="g2002" style="fill:#ffffff;fill-opacity:1"><g id="g2008" style="fill:#ffffff;fill-opacity:1"><g id="g2010" style="fill:#ffffff;fill-opacity:1"><path id="path2018" style="fill:#ffffff;fill-opacity:1;stroke:none" d="m 59.035,255.28 c 0,-0.434 0.352,-0.785 0.784,-0.785 v 0 c 0.434,0 0.785,0.351 0.785,0.785 v 0 c 0,0.432 -0.351,0.784 -0.785,0.784 v 0 c -0.432,0 -0.784,-0.352 -0.784,-0.784"></path></g></g></g></g><g id="g2020" transform="matrix(0.35277777,0,0,-0.35277777,-3.2366891,327.5023)" style="fill:#ffffff;fill-opacity:1"><g clip-path="url(#clipPath2026)" id="g2022" style="fill:#ffffff;fill-opacity:1"><g id="g2028" style="fill:#ffffff;fill-opacity:1"><g id="g2030" style="fill:#ffffff;fill-opacity:1"><path id="path2038" style="fill:#ffffff;fill-opacity:1;stroke:none" d="m 50.801,252.097 c 0,-0.605 0.49,-1.094 1.095,-1.094 v 0 c 0.604,0 1.093,0.489 1.093,1.094 v 0 c 0,0.604 -0.489,1.095 -1.093,1.095 v 0 c -0.605,0 -1.095,-0.491 -1.095,-1.095"></path></g></g></g></g><g id="g2040" transform="matrix(0.35277777,0,0,-0.35277777,-3.2366891,327.5023)" style="fill:#ffffff;fill-opacity:1"><g clip-path="url(#clipPath2046)" id="g2042" style="fill:#ffffff;fill-opacity:1"><g id="g2048" style="fill:#ffffff;fill-opacity:1"><g id="g2050" style="fill:#ffffff;fill-opacity:1"><path id="path2058" style="fill:#ffffff;fill-opacity:1;stroke:none" d="m 83.075,262.511 -0.06,-3.168 c 0.636,-0.45 0.666,-1.127 0.666,-1.127 v 0 c 0.054,-0.725 -0.632,-1.306 -0.632,-1.306 v 0 l 0.026,-3.073 c 1.206,-1.133 0.99,-1.562 0.99,-1.562 v 0 c -0.001,-1.348 -1.007,-1.913 -1.007,-1.913 v 0 l 0.017,-3.064 c 0.398,-0.28 0.64,-1.153 0.64,-1.153 v 0 c -0.054,-0.894 -0.708,-1.281 -0.708,-1.281 v 0 -3.074 c 1.067,-0.933 1.058,-1.477 1.058,-1.477 v 0 c 0.154,-1.417 -1.058,-1.971 -1.058,-1.971 v 0 -3.663 c 0.5,-0.568 0.708,-1.263 0.708,-1.263 v 0 c 0.031,-0.781 -0.742,-1.503 -0.742,-1.503 v 0 l 0.059,-3.62 c 0.767,-0.299 1.076,-1.315 1.076,-1.315 v 0 l 13.548,5.542 v 12.088 l -6.138,-1.545 c 0,0 -0.063,0.117 -0.116,0.178 v 0 c -0.036,-0.064 -0.072,-0.106 -0.072,-0.016 v 0 c 0.001,0.075 0.034,0.06 0.072,0.016 v 0 c 0.037,0.065 0.074,0.155 0.074,0.155 v 0 l 13.505,5.302 0.044,-7.163 c -0.198,-0.751 -0.744,-1.494 -0.744,-1.494 v 0 c -0.741,-1.279 -0.409,-1.656 -0.409,-1.656 v 0 c 0.04,-0.836 0.956,-1.204 0.956,-1.204 v 0 c 1.351,-0.28 1.759,0.692 1.759,0.692 v 0 c 0.456,1.063 -0.042,1.757 -0.042,1.757 v 0 c -0.651,0.809 -0.88,1.665 -0.88,1.665 v 0 l -0.077,7.719 7.675,3.09 -29.206,11.696 c -0.213,-0.876 -0.982,-1.289 -0.982,-1.289"></path></g></g></g></g><g id="g2060" transform="matrix(0.35277777,0,0,-0.35277777,-3.2366891,327.5023)" style="fill:#ffffff;fill-opacity:1"><g clip-path="url(#clipPath2066)" id="g2062" style="fill:#ffffff;fill-opacity:1"><g id="g2068" style="fill:#ffffff;fill-opacity:1"><g id="g2070" style="fill:#ffffff;fill-opacity:1"><path id="path2078" style="fill:#ffffff;fill-opacity:1;stroke:none" d="m 82.008,226.978 h 0.23 v 36.216 h -0.23 z"></path></g></g></g></g><g id="g2080" transform="matrix(0.35277777,0,0,-0.35277777,-3.2366891,327.5023)" style="fill:#ffffff;fill-opacity:1"><g clip-path="url(#clipPath2086)" id="g2082" style="fill:#ffffff;fill-opacity:1"><g id="g2088" style="fill:#ffffff;fill-opacity:1"><g id="g2090" style="fill:#ffffff;fill-opacity:1"><path id="path2098" style="fill:#ffffff;fill-opacity:1;stroke:none" d="m 51.433,251.961 0.088,-0.213 29.627,12.052 -0.087,0.213 z"></path></g></g></g></g><g id="g2100" transform="matrix(0.35277777,0,0,-0.35277777,-3.2366891,327.5023)" style="fill:#ffffff;fill-opacity:1"><g clip-path="url(#clipPath2106)" id="g2102" style="fill:#ffffff;fill-opacity:1"><g id="g2108" style="fill:#ffffff;fill-opacity:1"><g id="g2110" style="fill:#ffffff;fill-opacity:1"><path id="path2118" style="fill:#ffffff;fill-opacity:1;stroke:none" d="m 81.046,264.234 c 0,-0.604 0.49,-1.094 1.093,-1.094 v 0 c 0.604,0 1.093,0.49 1.093,1.094 v 0 c 0,0.604 -0.489,1.093 -1.093,1.093 v 0 c -0.603,0 -1.093,-0.489 -1.093,-1.093"></path></g></g></g></g><g id="g2120" transform="matrix(0.35277777,0,0,-0.35277777,-3.2366891,327.5023)" style="fill:#ffffff;fill-opacity:1"><g clip-path="url(#clipPath2126)" id="g2122" style="fill:#ffffff;fill-opacity:1"><g id="g2128" style="fill:#ffffff;fill-opacity:1"><g id="g2130" style="fill:#ffffff;fill-opacity:1"><path id="path2138" style="fill:#ffffff;fill-opacity:1;stroke:none" d="m 81.469,258.148 c 0,-0.37 0.3,-0.671 0.67,-0.671 v 0 c 0.37,0 0.671,0.301 0.671,0.671 v 0 c 0,0.371 -0.301,0.67 -0.671,0.67 v 0 c -0.37,0 -0.67,-0.299 -0.67,-0.67"></path></g></g></g></g><g id="g2140" transform="matrix(0.35277777,0,0,-0.35277777,-3.2366891,327.5023)" style="fill:#ffffff;fill-opacity:1"><g clip-path="url(#clipPath2146)" id="g2142" style="fill:#ffffff;fill-opacity:1"><g id="g2148" style="fill:#ffffff;fill-opacity:1"><g id="g2150" style="fill:#ffffff;fill-opacity:1"><path id="path2158" style="fill:#ffffff;fill-opacity:1;stroke:none" d="m 81.046,252.133 c 0,-0.593 0.481,-1.074 1.075,-1.074 v 0 c 0.594,0 1.076,0.481 1.076,1.074 v 0 c 0,0.594 -0.482,1.076 -1.076,1.076 v 0 c -0.594,0 -1.075,-0.482 -1.075,-1.076"></path></g></g></g></g><g id="g2160" transform="matrix(0.35277777,0,0,-0.35277777,-3.2366891,327.5023)" style="fill:#ffffff;fill-opacity:1"><g clip-path="url(#clipPath2166)" id="g2162" style="fill:#ffffff;fill-opacity:1"><g id="g2168" style="fill:#ffffff;fill-opacity:1"><g id="g2170" style="fill:#ffffff;fill-opacity:1"><path id="path2178" style="fill:#ffffff;fill-opacity:1;stroke:none" d="m 81.42,246.09 c 0,-0.387 0.314,-0.701 0.701,-0.701 v 0 c 0.387,0 0.701,0.314 0.701,0.701 v 0 c 0,0.388 -0.314,0.701 -0.701,0.701 v 0 c -0.387,0 -0.701,-0.313 -0.701,-0.701"></path></g></g></g></g><g id="g2180" transform="matrix(0.35277777,0,0,-0.35277777,-3.2366891,327.5023)" style="fill:#ffffff;fill-opacity:1"><g clip-path="url(#clipPath2186)" id="g2182" style="fill:#ffffff;fill-opacity:1"><g id="g2188" style="fill:#ffffff;fill-opacity:1"><g id="g2190" style="fill:#ffffff;fill-opacity:1"><path id="path2198" style="fill:#ffffff;fill-opacity:1;stroke:none" d="m 81.061,240.06 c 0,-0.596 0.483,-1.079 1.078,-1.079 v 0 c 0.595,0 1.078,0.483 1.078,1.079 v 0 c 0,0.596 -0.483,1.078 -1.078,1.078 v 0 c -0.595,0 -1.078,-0.482 -1.078,-1.078"></path></g></g></g></g><g id="g2200" transform="matrix(0.35277777,0,0,-0.35277777,-3.2366891,327.5023)" style="fill:#ffffff;fill-opacity:1"><g clip-path="url(#clipPath2206)" id="g2202" style="fill:#ffffff;fill-opacity:1"><g id="g2208" style="fill:#ffffff;fill-opacity:1"><g id="g2210" style="fill:#ffffff;fill-opacity:1"><path id="path2218" style="fill:#ffffff;fill-opacity:1;stroke:none" d="m 81.428,233.351 c 0,-0.393 0.318,-0.711 0.711,-0.711 v 0 c 0.393,0 0.711,0.318 0.711,0.711 v 0 c 0,0.392 -0.318,0.71 -0.711,0.71 v 0 c -0.393,0 -0.711,-0.318 -0.711,-0.71"></path></g></g></g></g><g id="g2220" transform="matrix(0.35277777,0,0,-0.35277777,-3.2366891,327.5023)" style="fill:#ffffff;fill-opacity:1"><g clip-path="url(#clipPath2226)" id="g2222" style="fill:#ffffff;fill-opacity:1"><g id="g2228" style="fill:#ffffff;fill-opacity:1"><g id="g2230" style="fill:#ffffff;fill-opacity:1"><path id="path2238" style="fill:#ffffff;fill-opacity:1;stroke:none" d="m 80.997,226.645 c 0,-0.631 0.511,-1.142 1.142,-1.142 v 0 c 0.631,0 1.143,0.511 1.143,1.142 v 0 c 0,0.63 -0.512,1.141 -1.143,1.141 v 0 c -0.631,0 -1.142,-0.511 -1.142,-1.141"></path></g></g></g></g><g id="g2240" transform="matrix(0.35277777,0,0,-0.35277777,-3.2366891,327.5023)" style="fill:#ffffff;fill-opacity:1"><g clip-path="url(#clipPath2246)" id="g2242" style="fill:#ffffff;fill-opacity:1"><g id="g2248" style="fill:#ffffff;fill-opacity:1"><g id="g2250" style="fill:#ffffff;fill-opacity:1"><path id="path2258" style="fill:#ffffff;fill-opacity:1;stroke:none" d="m 91.3,243.222 0.006,-0.042 c 0,0 0.043,-0.024 0.044,-0.024 v 0 c 0.002,0 0.036,0.034 0.036,0.034 v 0 l 0.017,0.041 -0.003,0.022 v 0.024 l -0.007,0.032 -0.023,0.006 z"></path></g></g></g></g></g><g transform="matrix(0.80452009,0,0,0.80452009,219.4448,10.930828)" id="g10" style="fill:#ffffff;fill-opacity:1"><g id="g12" style="fill:#ffffff;fill-opacity:1"><path id="path14" style="fill:#ffffff;fill-opacity:1;fill-rule:nonzero;stroke:none" d="M 22.016,97.992 H 5.457 v 2.656 l 11.047,0.04 -0.012,2.851 L 5.457,103.5 v 2.645 h 16.559 v 2.851 H 2.598 V 95.145 h 19.418 v 2.851 z m 25.039,8.137 0.05,2.82 -1.417,0.024 c -0.016,0 -1.25,0.023 -3.665,0.023 -1.222,0 -2.746,-0.008 -4.57,-0.023 -2.941,-0.024 -5.289,-0.657 -6.988,-1.879 -1.684,-1.215 -2.613,-2.985 -2.613,-4.977 0,-1.992 0.937,-3.765 2.636,-4.988 1.688,-1.211 4.098,-1.859 6.973,-1.871 5.41,-0.02 8.187,0 8.215,0 l 1.414,0.012 -0.02,2.824 -1.418,-0.012 c -0.027,0 -2.789,-0.023 -8.179,0 -4.188,0.016 -6.789,1.563 -6.789,4.035 0,1.094 0.484,2 1.441,2.688 1.195,0.859 3.047,1.328 5.352,1.347 5.378,0.047 8.136,0 8.164,0 z M 71.16,96.414 c 1.117,1.102 1.11,2.703 1.094,5.121 0,0.18 -0.004,0.367 -0.004,0.559 -0.004,1.437 -0.008,2.472 -0.16,3.347 -0.129,0.747 -0.426,1.821 -1.516,2.543 -1.379,0.918 -3.437,0.938 -7.953,0.985 -0.707,0.008 -1.355,0.011 -1.957,0.011 -3.574,0 -5.375,-0.187 -6.523,-1.328 -1.196,-1.183 -1.188,-2.925 -1.18,-5.57 0.012,-2.945 0.019,-4.723 1.519,-5.828 1.293,-0.953 3.168,-0.977 7.286,-1.031 l 0.82,-0.012 c 5.129,-0.074 7.25,-0.106 8.574,1.203 z m -1.75,5.106 c 0.008,-1.391 0.02,-2.829 -0.254,-3.098 -0.336,-0.328 -1.84,-0.406 -3.847,-0.406 -0.825,0 -1.735,0.011 -2.684,0.027 l -0.824,0.012 c -2.946,0.039 -5.078,0.066 -5.633,0.476 -0.352,0.258 -0.359,1.789 -0.367,3.563 -0.004,1.648 -0.012,3.203 0.344,3.551 0.554,0.55 3.55,0.519 6.445,0.492 3.328,-0.032 5.73,-0.059 6.41,-0.508 0.398,-0.262 0.402,-1.641 0.41,-3.543 0,-0.195 0,-0.387 0,-0.566 z m 11.543,4.57 h 16.559 v 2.851 H 78.094 V 95.09 h 2.859 z m 41.84,-8.098 h -16.559 v 2.656 l 11.043,0.04 -0.011,2.851 -11.032,-0.039 v 2.645 h 16.559 v 2.851 H 103.371 V 95.145 h 19.422 v 2.851 z m 21.812,0.067 c -0.265,0.144 -0.535,0.39 -0.535,1.105 0,0.555 0.18,0.859 0.641,1.082 0.469,0.223 0.992,0.242 1.016,0.242 l 10.398,0.039 c 1.809,0 4.504,1.114 4.504,4.176 0,3.063 -2.508,4.176 -4.191,4.176 h -15.231 v -2.852 h 15.219 c 0.125,-0.004 0.496,-0.05 0.804,-0.218 0.266,-0.149 0.536,-0.395 0.536,-1.106 0,-0.555 -0.18,-0.859 -0.641,-1.082 -0.465,-0.223 -0.988,-0.242 -1.016,-0.242 l -10.39,-0.047 v 0.008 c -1.813,0 -4.512,-1.113 -4.512,-4.176 0,-3.066 2.508,-4.176 4.191,-4.176 h 15.231 V 97.84 H 145.41 c -0.125,0.004 -0.496,0.051 -0.805,0.219 z M 185.883,95 l 0.051,6.922 c 0.023,1.531 -0.598,3.019 -1.746,4.187 -1.215,1.239 -3.583,2.723 -7.954,2.754 -0.043,0 -0.086,0 -0.125,0 -3.308,0 -6.07,-0.945 -7.789,-2.672 -1.183,-1.187 -1.824,-2.699 -1.804,-4.257 l -0.051,-6.911 2.859,-0.023 0.051,6.941 v 0.016 c -0.012,0.805 0.324,1.574 0.973,2.227 1.195,1.199 3.277,1.847 5.867,1.828 2.64,-0.02 4.746,-0.692 5.93,-1.895 0.621,-0.633 0.941,-1.379 0.929,-2.16 v -0.008 l -0.051,-6.926 z m 20.863,-0.012 c 1.813,0 4.512,1.11 4.512,4.176 0,3.063 -2.508,4.172 -4.192,4.172 h -12.394 l -0.02,5.508 -2.863,-0.012 0.047,-12.418 v -1.426 h 0.004 V 94.98 l 1.433,0.008 z m 1.113,5.278 c 0.266,-0.145 0.539,-0.391 0.539,-1.102 0,-0.574 -0.195,-0.883 -0.695,-1.105 -0.453,-0.204 -0.949,-0.223 -0.953,-0.223 h -12.051 v 2.652 h 12.356 c 0.125,-0.004 0.496,-0.05 0.804,-0.222 z m 28.657,-2.274 h -16.559 v 2.656 l 11.043,0.04 -0.012,2.851 -11.035,-0.039 v 2.645 h 16.563 v 2.851 H 217.094 V 95.145 h 19.422 v 2.851 z m 23.293,8.024 1.414,-0.024 0.043,2.824 -1.414,0.02 c -0.223,0.004 -0.473,0.008 -0.743,0.008 -1.968,0 -5.121,-0.196 -7.113,-2.153 -0.887,-0.871 -1.445,-1.976 -1.672,-3.3 h -5.121 l -0.023,5.449 -2.832,-0.008 0.047,-12.297 v -1.414 h 0.003 v -0.004 l 1.414,0.004 h 13.344 c 1.797,0 4.465,1.102 4.465,4.137 0,3.031 -2.48,4.133 -4.148,4.133 h -4.243 c 0.153,0.515 0.399,0.945 0.75,1.293 1.426,1.398 4.399,1.351 5.829,1.332 z m -14.582,-5.45 h 12.234 c 0.125,-0.004 0.496,-0.05 0.797,-0.214 0.265,-0.149 0.535,-0.391 0.535,-1.094 0,-0.57 -0.195,-0.875 -0.688,-1.098 -0.449,-0.199 -0.941,-0.215 -0.945,-0.215 h -11.933 z m 25.089,8.446 H 267.48 V 95.297 h 2.836 z m 25.27,-11.02 h -16.559 v 2.656 l 11.043,0.04 -0.011,2.851 -11.032,-0.039 v 2.645 h 16.559 v 2.851 H 276.164 V 95.145 h 19.422 v 2.851 z M 320.84,95 l 0.051,6.922 c 0.019,1.531 -0.598,3.019 -1.746,4.187 -1.215,1.239 -3.583,2.723 -7.954,2.754 -0.043,0 -0.086,0 -0.125,0 -3.308,0 -6.07,-0.945 -7.793,-2.672 -1.179,-1.187 -1.82,-2.699 -1.8,-4.257 l -0.051,-6.911 2.859,-0.023 0.051,6.941 v 0.016 c -0.012,0.805 0.324,1.574 0.973,2.227 1.195,1.199 3.277,1.847 5.867,1.828 2.64,-0.02 4.746,-0.692 5.93,-1.895 0.617,-0.633 0.941,-1.379 0.929,-2.16 v -0.008 l -0.051,-6.926 z m 23.367,11.016 1.414,-0.024 0.043,2.824 -1.414,0.02 c -0.223,0.004 -0.473,0.008 -0.742,0.008 -1.969,0 -5.121,-0.196 -7.113,-2.153 -0.887,-0.871 -1.446,-1.976 -1.672,-3.3 h -5.121 l -0.024,5.449 -2.832,-0.008 0.047,-12.297 v -1.414 h 0.004 v -0.004 l 1.414,0.004 h 13.344 c 1.797,0 4.465,1.102 4.465,4.137 0,3.031 -2.481,4.133 -4.149,4.133 h -4.242 c 0.152,0.515 0.398,0.945 0.75,1.293 1.426,1.398 4.398,1.351 5.828,1.332 z m -14.582,-5.45 h 12.234 c 0.125,-0.004 0.496,-0.05 0.797,-0.214 0.266,-0.149 0.535,-0.391 0.535,-1.094 0,-0.57 -0.195,-0.875 -0.687,-1.098 -0.449,-0.199 -0.942,-0.215 -0.945,-0.215 h -11.934 z m 41.676,-2.574 h -16.559 v 2.656 l 11.043,0.04 -0.012,2.851 -11.031,-0.039 v 2.645 h 16.559 v 2.851 H 351.879 V 95.145 h 19.422 v 2.851 z m 36.066,-0.148 c 1.164,1.176 1.793,2.683 1.77,4.246 -0.028,1.933 -0.961,3.695 -2.633,4.965 -1.738,1.32 -4.184,2.019 -7.074,2.019 -5.52,0 -8.297,-0.078 -8.325,-0.082 l -1.386,-0.039 V 95.145 h 9.711 c 4.351,0 6.718,1.464 7.937,2.699 z m -7.937,8.383 c 4.687,0 6.816,-2.098 6.847,-4.18 0.012,-0.801 -0.316,-1.563 -0.949,-2.203 -1.18,-1.192 -3.277,-1.852 -5.898,-1.852 h -6.852 v 8.184 c 1.328,0.019 3.61,0.051 6.852,0.051 z m 34.988,-8.235 h -16.563 v 2.656 l 11.047,0.04 -0.011,2.851 -11.036,-0.039 v 2.645 h 16.563 v 2.851 H 414.996 V 95.145 h 19.422 v 2.851 z m 37.644,4.184 c -0.023,1.656 0,5.379 0,5.414 l 0.012,1.422 h -9.625 c -2.89,0 -5.312,-0.645 -6.996,-1.864 -1.687,-1.222 -2.617,-2.996 -2.617,-4.996 0,-1.656 0.625,-3.152 1.812,-4.324 1.7,-1.68 4.399,-2.558 7.813,-2.531 2.078,0.015 8.121,0 8.184,0 l 1.414,-0.004 0.007,2.82 -1.414,0.004 c -0.062,0 -6.121,0.016 -8.214,0 -2.606,-0.019 -4.661,0.59 -5.793,1.715 -0.649,0.641 -0.977,1.422 -0.977,2.32 0,2.489 2.598,4.036 6.781,4.036 h 6.774 c 0,-0.774 -0.004,-1.747 0,-2.622 h -5.457 v -2.824 h 8.32 z m 25.301,-4.184 h -16.558 v 2.656 l 11.043,0.04 -0.012,2.851 -11.035,-0.039 v 2.645 h 16.562 v 2.851 H 477.941 V 95.145 h 19.422 v 2.851 z m 22.395,-2.863 h 2.859 v 13.66 l -16.558,-8.617 v 8.808 h -2.864 V 95.32 l 16.559,8.621 v -8.812 z m 11.527,13.883 h -2.832 V 95.297 h 2.832 z m 25.27,-11.02 h -16.559 v 2.656 l 11.043,0.04 -0.012,2.851 -11.031,-0.039 v 2.645 h 16.559 v 2.851 H 537.133 V 95.145 h 19.422 v 2.851 z"></path><path id="path16" style="fill:#ffffff;fill-opacity:1;fill-rule:nonzero;stroke:none" d="M 5.066,130.965 H 2.684 v -12.664 h 2.382 z m 18.875,-12.817 h 2.407 v 12.614 l -13.946,-7.961 v 8.137 H 9.996 v -12.614 l 13.945,7.957 z m 23.676,2.657 H 33.672 v 2.449 h 9.297 v 2.633 h -9.297 v 5.078 h -2.41 v -12.789 h 16.355 v 2.633 z m 20.242,-1.473 c 0.942,1.02 0.934,2.496 0.922,4.73 0,0.165 -0.004,0.336 -0.004,0.516 -0.004,1.324 -0.007,2.285 -0.132,3.09 -0.11,0.691 -0.36,1.684 -1.278,2.352 -1.16,0.847 -2.898,0.863 -6.699,0.906 -0.594,0.008 -1.141,0.012 -1.648,0.012 -3.012,0 -4.524,-0.176 -5.493,-1.227 -1.007,-1.094 -1.004,-2.703 -0.992,-5.141 0.008,-2.722 0.012,-4.367 1.277,-5.386 1.086,-0.879 2.668,-0.903 6.133,-0.954 l 0.696,-0.007 c 4.316,-0.071 6.105,-0.098 7.218,1.109 z m -1.472,4.715 c 0.008,-1.285 0.015,-2.613 -0.215,-2.859 -0.281,-0.305 -1.551,-0.376 -3.238,-0.376 -0.696,0 -1.465,0.012 -2.262,0.024 l -0.692,0.012 c -2.484,0.035 -4.277,0.062 -4.746,0.441 -0.296,0.238 -0.304,1.652 -0.308,3.289 -0.004,1.52 -0.012,2.957 0.289,3.281 0.465,0.508 2.988,0.477 5.43,0.453 2.8,-0.031 4.824,-0.054 5.394,-0.468 0.336,-0.246 0.34,-1.516 0.344,-3.274 0.004,-0.183 0.004,-0.355 0.004,-0.523 z m 22.011,4.152 1.196,-0.019 0.035,2.605 -1.191,0.02 c -0.188,0.004 -0.399,0.007 -0.626,0.007 -1.656,0 -4.312,-0.179 -5.992,-1.988 -0.746,-0.804 -1.218,-1.824 -1.406,-3.051 h -4.312 l -0.02,5.036 -2.387,-0.008 0.039,-11.356 v -1.304 h 0.004 v -0.004 l 1.192,0.004 h 11.238 c 1.512,0 3.762,1.015 3.762,3.816 0,2.801 -2.09,3.82 -3.496,3.82 h -3.575 c 0.129,0.477 0.34,0.871 0.637,1.192 1.199,1.289 3.699,1.25 4.902,1.23 z m -12.277,-5.031 h 10.305 c 0.105,-0.004 0.414,-0.047 0.672,-0.199 0.218,-0.137 0.445,-0.36 0.445,-1.012 0,-0.523 -0.16,-0.809 -0.578,-1.012 -0.379,-0.183 -0.789,-0.199 -0.793,-0.199 H 76.121 Z m 26.918,1.113 8.18,-5.957 v 12.614 h -2.41 v -7.696 l -5.77,4.203 -5.766,-4.203 v 7.696 h -2.41 v -12.614 z m 21.473,-7.125 9.418,13.672 h -3.028 l -2.636,-3.812 h -7.508 l -2.598,3.812 h -2.992 z m -1.95,7.227 h 3.899 l -1.949,-2.836 z m 11.227,-6.367 h 16.356 v 2.632 h -6.973 v 10.196 h -2.41 v -10.196 h -6.973 z m 23.672,12.949 h -2.383 v -12.664 h 2.383 z m 21.617,-1.899 -1.316,2.184 -1.289,-0.93 c -1.164,0.45 -2.883,0.469 -5.95,0.504 -0.593,0.004 -1.14,0.012 -1.644,0.012 -3.012,0 -4.527,-0.176 -5.496,-1.227 -1.008,-1.093 -1,-2.703 -0.992,-5.144 0.007,-2.719 0.015,-4.363 1.277,-5.383 1.09,-0.879 2.672,-0.902 6.137,-0.953 l 0.691,-0.012 c 4.32,-0.066 6.106,-0.094 7.219,1.113 0.941,1.02 0.933,2.497 0.922,4.731 0,0.164 0,0.336 0,0.516 -0.004,1.324 -0.008,2.285 -0.137,3.089 -0.043,0.274 -0.109,0.594 -0.227,0.922 z m -8.578,-0.859 c 1.125,-0.012 2.121,-0.019 2.953,-0.059 l -2.726,-1.957 1.316,-2.183 4.121,2.965 c 0.07,-0.59 0.074,-1.461 0.078,-2.508 0,-0.18 0,-0.352 0.004,-0.52 0.004,-1.285 0.012,-2.613 -0.215,-2.859 -0.285,-0.305 -1.551,-0.379 -3.242,-0.379 -0.695,0 -1.461,0.016 -2.258,0.027 l -0.695,0.008 c -2.481,0.039 -4.277,0.063 -4.746,0.446 -0.297,0.238 -0.301,1.652 -0.305,3.289 -0.008,1.519 -0.012,2.957 0.285,3.277 0.469,0.508 2.992,0.48 5.43,0.457 z m 29.863,-10.18 0.043,6.391 c 0.016,1.414 -0.508,2.789 -1.472,3.867 -1.024,1.145 -3.016,2.516 -6.7,2.543 -0.035,0 -0.07,0 -0.105,0 -2.785,0 -5.113,-0.871 -6.559,-2.465 -0.996,-1.097 -1.535,-2.492 -1.519,-3.933 l -0.043,-6.383 2.41,-0.02 0.043,6.411 v 0.015 c -0.012,0.742 0.273,1.453 0.816,2.055 1.008,1.105 2.762,1.707 4.942,1.687 2.222,-0.015 3.996,-0.636 4.992,-1.75 0.523,-0.586 0.793,-1.273 0.785,-1.992 v -0.012 l -0.043,-6.394 z m 21.328,2.766 h -13.945 v 2.449 l 9.301,0.039 -0.008,2.633 -9.293,-0.039 v 2.441 h 13.945 v 2.633 H 205.336 V 118.16 h 16.355 z m 31.864,0 h -13.946 v 2.449 l 9.301,0.039 -0.008,2.633 -9.293,-0.039 v 2.441 h 13.946 v 2.633 H 237.199 V 118.16 h 16.356 z m 4.914,-2.777 h 16.355 v 2.632 h -6.972 v 10.196 h -2.411 v -10.196 h -6.972 z m 46.75,2.636 c 0.98,1.086 1.508,2.481 1.492,3.922 -0.023,1.785 -0.813,3.41 -2.219,4.586 -1.465,1.219 -3.523,1.863 -5.961,1.863 -4.644,0 -6.984,-0.074 -7.008,-0.074 l -1.168,-0.039 v -12.75 h 8.176 c 3.668,0 5.66,1.356 6.688,2.492 z m -6.688,7.743 c 3.949,0 5.742,-1.938 5.77,-3.86 0.008,-0.742 -0.266,-1.445 -0.797,-2.035 -0.996,-1.102 -2.762,-1.707 -4.973,-1.707 h -5.765 v 7.551 c 1.117,0.023 3.039,0.051 5.765,0.051 z M 328,120.793 h -13.945 v 2.449 l 9.3,0.039 -0.011,2.633 -9.293,-0.039 v 2.441 H 328 v 2.633 H 311.645 V 118.16 H 328 Z m 15.508,-2.777 h 16.355 v 2.632 h -6.972 v 10.196 h -2.411 v -10.196 h -6.972 z m 37.644,2.777 h -13.945 v 2.449 l 9.301,0.039 -0.008,2.633 -9.293,-0.039 v 2.441 h 13.945 v 2.633 H 364.797 V 118.16 h 16.355 z m 19.547,7.508 0.043,2.609 -1.195,0.02 c -0.016,0 -1.055,0.019 -3.086,0.019 -1.027,0 -2.313,-0.004 -3.848,-0.019 -2.476,-0.024 -4.457,-0.606 -5.886,-1.735 -1.418,-1.125 -2.2,-2.754 -2.2,-4.597 0,-1.84 0.789,-3.477 2.219,-4.606 1.422,-1.117 3.449,-1.715 5.871,-1.726 4.559,-0.02 6.899,0 6.922,0 l 1.191,0.011 -0.019,2.606 -1.191,-0.012 c -0.024,0 -2.352,-0.019 -6.891,0 -3.527,0.016 -5.715,1.445 -5.715,3.727 0,1.011 0.406,1.847 1.211,2.484 1.008,0.793 2.566,1.223 4.508,1.242 4.531,0.043 6.851,0 6.875,0 z m 18.918,-10.125 h 2.41 v 12.789 h -2.41 v -5.078 h -11.535 v 5.078 h -2.41 v -12.789 h 2.41 v 5.078 h 11.535 z m 21.27,-0.028 h 2.406 v 12.614 l -13.945,-7.961 v 8.137 h -2.407 v -12.614 l 13.946,7.957 z m 22.648,1.184 c 0.942,1.02 0.934,2.496 0.922,4.73 0,0.165 0,0.336 0,0.516 -0.008,1.324 -0.012,2.285 -0.137,3.09 -0.109,0.691 -0.359,1.684 -1.277,2.352 -1.16,0.847 -2.895,0.863 -6.699,0.906 -0.594,0.008 -1.141,0.012 -1.645,0.012 -3.011,0 -4.527,-0.176 -5.496,-1.227 -1.008,-1.094 -1,-2.703 -0.992,-5.141 0.008,-2.722 0.016,-4.367 1.277,-5.386 1.09,-0.879 2.672,-0.903 6.137,-0.954 l 0.691,-0.007 c 4.321,-0.071 6.106,-0.098 7.219,1.109 z m -1.473,4.715 c 0.008,-1.285 0.016,-2.613 -0.214,-2.859 -0.282,-0.305 -1.551,-0.376 -3.239,-0.376 -0.695,0 -1.461,0.012 -2.261,0.024 l -0.692,0.012 c -2.484,0.035 -4.277,0.062 -4.746,0.441 -0.297,0.238 -0.301,1.652 -0.308,3.289 -0.004,1.52 -0.008,2.957 0.289,3.281 0.464,0.508 2.988,0.477 5.429,0.453 2.801,-0.031 4.825,-0.054 5.395,-0.468 0.336,-0.246 0.34,-1.516 0.347,-3.274 0,-0.183 0,-0.355 0,-0.523 z m 9.723,4.223 h 13.945 v 2.628 h -16.355 v -12.789 h 2.41 z m 34.203,-8.938 c 0.946,1.02 0.938,2.496 0.922,4.73 0,0.165 0,0.336 0,0.516 -0.004,1.324 -0.008,2.285 -0.137,3.09 -0.105,0.691 -0.359,1.684 -1.273,2.352 -1.164,0.847 -2.898,0.863 -6.699,0.906 -0.594,0.008 -1.141,0.012 -1.649,0.012 -3.011,0 -4.527,-0.176 -5.492,-1.227 -1.008,-1.094 -1.004,-2.703 -0.996,-5.141 0.012,-2.722 0.016,-4.367 1.277,-5.386 1.09,-0.879 2.672,-0.903 6.137,-0.954 l 0.692,-0.007 c 4.32,-0.071 6.109,-0.098 7.218,1.109 z m -1.468,4.715 c 0.007,-1.285 0.011,-2.613 -0.215,-2.859 -0.282,-0.305 -1.551,-0.376 -3.243,-0.376 -0.695,0 -1.46,0.012 -2.257,0.024 l -0.696,0.012 c -2.48,0.035 -4.277,0.062 -4.746,0.441 -0.297,0.238 -0.301,1.652 -0.304,3.289 -0.008,1.52 -0.012,2.957 0.285,3.281 0.468,0.508 2.992,0.477 5.429,0.453 2.805,-0.031 4.829,-0.054 5.399,-0.468 0.332,-0.246 0.34,-1.516 0.344,-3.274 0,-0.183 0,-0.355 0.004,-0.523 z m 23.503,0.605 c -0.019,1.532 0,4.969 0,5 l 0.008,1.313 h -8.105 c -2.434,0 -4.473,-0.594 -5.891,-1.723 -1.422,-1.129 -2.207,-2.765 -2.207,-4.609 0,-1.528 0.531,-2.91 1.531,-3.996 1.43,-1.551 3.703,-2.36 6.575,-2.336 1.754,0.015 6.843,0 6.894,0 l 1.192,-0.004 0.007,2.605 -1.195,0.004 c -0.051,0 -5.148,0.016 -6.914,0 -2.195,-0.019 -3.926,0.543 -4.879,1.582 -0.547,0.59 -0.824,1.313 -0.824,2.145 0,2.297 2.187,3.726 5.711,3.726 h 5.707 c -0.004,-0.714 -0.004,-1.613 -0.004,-2.421 h -4.594 v -2.61 h 7.008 z m 7.336,6.313 h -2.386 v -12.664 h 2.386 z m 21.282,-10.172 h -13.946 v 2.449 l 9.301,0.039 -0.008,2.633 -9.293,-0.039 v 2.441 h 13.946 v 2.633 H 540.285 V 118.16 h 16.356 z"></path><path id="path18" style="fill:#ffffff;fill-opacity:1;fill-rule:nonzero;stroke:none" d="m 2.598,81.445 h 553.957 v 1.809 H 2.598 Z"></path><path id="path20" style="fill:#ffffff;fill-opacity:1;fill-rule:nonzero;stroke:none" d="m 347.297,25.566 h 10.895 v 43.266 h -10.895 z"></path></g><g id="g22" style="fill:#ffffff;fill-opacity:1"><g clip-path="url(#clipPath28)" id="g24" style="fill:#ffffff;fill-opacity:1"><g clip-path="url(#clipPath34)" id="g30" style="fill:#ffffff;fill-opacity:1"><g id="g36" style="fill:#ffffff;fill-opacity:1"><g id="g38" style="fill:#ffffff;fill-opacity:1"><g clip-path="url(#clipPath44)" id="g40" style="fill:#ffffff;fill-opacity:1"><g id="g46" style="fill:#ffffff;fill-opacity:1"><path id="path48" style="fill:#ffffff;fill-opacity:1;fill-rule:nonzero;stroke:none" d="M 62.688,44.113 H 10.547 V 32.801 h 46.297 z m 9.078,24.969 H 10.547 V 57.723 H 65.875 Z M 71.797,18.957 H 9.375 L 3.516,7.645 h 62.359 c 1.969,3.781 3.941,7.554 5.922,11.312 z"></path><path id="path50" style="fill:#ffffff;fill-opacity:1;fill-rule:nonzero;stroke:none" d="M 140.305,69.082 H 87.758 l -5.86,-11.328 h 56.094 c 1.031,0 1.867,-0.316 2.516,-0.953 0.738,-0.75 1.269,-1.711 1.594,-2.891 0.3,-1.031 0.453,-2.066 0.453,-3.109 0,-1.125 -0.149,-2.219 -0.438,-3.281 -0.281,-1.063 -0.793,-1.915 -1.531,-2.563 -0.625,-0.582 -1.492,-0.875 -2.594,-0.875 H 91.945 c -1.937,0 -3.672,-0.57 -5.203,-1.719 -1.406,-1.039 -2.605,-2.441 -3.594,-4.203 -1.968,-3.57 -2.953,-7.742 -2.953,-12.515 0,-2.426 0.301,-4.75 0.907,-6.969 1.039,-4.313 2.929,-7.469 5.671,-9.469 1.477,-1.039 3.204,-1.562 5.172,-1.562 h 52.485 c 2.031,3.761 4.023,7.531 5.984,11.312 H 94.336 c -0.625,0 -1.121,0.078 -1.484,0.234 -0.356,0.149 -0.715,0.403 -1.079,0.766 -0.742,0.75 -1.261,1.727 -1.562,2.922 l -0.031,0.156 c -0.325,0.906 -0.485,1.899 -0.485,2.969 0,1.094 0.145,2.148 0.438,3.156 v 0.047 c 0.301,1.094 0.801,1.977 1.5,2.641 0.625,0.605 1.488,0.906 2.594,0.906 h 46.078 c 2.812,0 5.25,1.242 7.312,3.719 1.676,2.086 2.883,4.726 3.625,7.922 0.531,2.273 0.797,4.605 0.797,7 0,2.886 -0.422,5.632 -1.266,8.234 -0.835,2.594 -2.121,4.809 -3.859,6.641 -1.867,1.875 -4.07,2.812 -6.609,2.812 z"></path><path id="path52" style="fill:#ffffff;fill-opacity:1;fill-rule:nonzero;stroke:none" d="m 230.594,69.082 h -47.266 l -5.844,-11.359 h 43.141 V 44.113 H 192.922 V 32.754 h 37.672 z M 170.141,33.113 v 11 h -9.797 V 33.52 c 0,-2.239 0.238,-4.438 0.718,-6.594 0.489,-2.164 1.196,-4.219 2.126,-6.156 0.945,-1.926 2.082,-3.688 3.406,-5.282 1.32,-1.601 2.804,-3.004 4.453,-4.203 1.656,-1.195 3.453,-2.101 5.391,-2.719 1.937,-0.613 3.957,-0.921 6.062,-0.921 h 40.234 l 0.516,1 3.734,7.234 1.594,3.078 h -45.875 c -1.18,0 -2.262,0.152 -3.25,0.453 -0.992,0.293 -1.98,0.774 -2.969,1.438 -1,0.636 -1.871,1.359 -2.609,2.172 -0.742,0.812 -1.406,1.781 -2,2.906 -0.605,1.117 -1.047,2.242 -1.328,3.375 -0.274,1.137 -0.406,2.406 -0.406,3.812 z"></path><path id="path54" style="fill:#ffffff;fill-opacity:1;fill-rule:nonzero;stroke:none" d="m 248.102,7.645 h 9.797 v 61.438 h -9.797 z"></path><path id="path56" style="fill:#ffffff;fill-opacity:1;fill-rule:nonzero;stroke:none" d="m 303.633,69.082 h -9.906 l 0.031,-50.078 h -24.016 l -5.89,-11.359 h 64.562 l 5.891,11.359 h -30.641 z"></path><path id="path58" style="fill:#ffffff;fill-opacity:1;fill-rule:nonzero;stroke:none" d="M 399.453,44.113 H 347.312 V 32.801 h 46.297 z m 9.078,24.969 H 347.312 V 57.723 h 55.329 z m 0.031,-50.125 h -62.421 l -5.86,-11.312 h 62.36 c 1.968,3.781 3.941,7.554 5.921,11.312 z"></path><path id="path60" style="fill:#ffffff;fill-opacity:1;fill-rule:nonzero;stroke:none" d="m 479.047,69.082 h -40.891 c -3.968,0 -7.246,-0.828 -9.828,-2.484 -2.824,-1.789 -5.156,-4.114 -7,-6.969 -3.855,-5.988 -5.781,-13.102 -5.781,-21.344 0,-8.32 1.914,-15.457 5.75,-21.406 1.988,-3.031 4.398,-5.328 7.234,-6.891 2.844,-1.562 6.016,-2.343 9.516,-2.343 h 33.172 l 5.859,11.312 h -38.75 c -1.75,0 -3.289,0.309 -4.609,0.922 -1.313,0.617 -2.559,1.605 -3.735,2.969 -3.343,3.867 -5.015,9.168 -5.015,15.906 0,4.324 0.863,8.219 2.593,11.687 1.083,2.188 2.536,3.95 4.36,5.282 1.82,1.336 3.969,2 6.437,2 h 40.688 z"></path><path id="path62" style="fill:#ffffff;fill-opacity:1;fill-rule:nonzero;stroke:none" d="m 556.73,69.082 h -9.828 V 43.645 h -46.297 v 25.437 h -9.828 V 7.645 h 9.828 v 25.718 h 46.297 V 7.645 h 9.828 z"></path><path id="path64" style="fill:#ffffff;fill-opacity:1;fill-rule:nonzero;stroke:none" d="m 228.691,69.027 h -44.515 c -4.324,0 -7.891,-0.824 -10.703,-2.468 -3.063,-1.782 -5.602,-4.098 -7.61,-6.954 -4.199,-5.976 -6.297,-13.082 -6.297,-21.312 0,-8.301 2.082,-15.422 6.25,-21.359 2.164,-3.032 4.789,-5.321 7.875,-6.875 3.094,-1.563 6.551,-2.344 10.375,-2.344 h 36.11 l 6.359,11.297 h -42.172 c -1.906,0 -3.578,0.308 -5.015,0.922 -1.43,0.617 -2.782,1.601 -4.063,2.953 -3.648,3.855 -5.469,9.152 -5.469,15.89 0,4.313 0.942,8.2 2.829,11.657 1.175,2.179 2.753,3.933 4.734,5.265 1.988,1.336 4.328,2 7.016,2 h 44.296 z"></path></g></g></g></g></g></g></g><g id="g66" style="fill:#ffffff;fill-opacity:1"><path id="path68" style="fill:#ffffff;fill-opacity:1;fill-rule:nonzero;stroke:none" d="M 10.43,25.617 H 21.321 V 68.883 H 10.43 Z"></path></g></g></g></svg> 