<svg id="Layer_1" data-name="Layer 1" xmlns="http://www.w3.org/2000/svg" xmlns:xlink="http://www.w3.org/1999/xlink" viewBox="0 0 512 512"><defs><linearGradient id="linear-gradient" x1="256" y1="512" x2="256" gradientUnits="userSpaceOnUse"><stop offset="0"/><stop offset="1" stop-color="#333"/></linearGradient></defs><title>microphone</title><path d="M344.74,87.48h0V237.55a85.09,85.09,0,0,1-1.24,12.1h.39c-.14,1-.53,2-.7,3-.42,2.33-1,4.59-1.62,6.84a80.34,80.34,0,0,1-2.89,9.1c-.85,2.19-1.8,4.3-2.82,6.42a87.38,87.38,0,0,1-4.52,8.15c-1.23,2-2.54,3.92-3.92,5.78-1.87,2.51-3.88,4.83-6,7.13-1.59,1.73-3.14,3.42-4.87,5a90.84,90.84,0,0,1-7.3,6c-1.83,1.34-3.63,2.75-5.57,4a92.75,92.75,0,0,1-8.68,4.69c-2,1-3.85,2-5.89,2.86a90,90,0,0,1-10.62,3.25c-1.8.49-3.53,1.16-5.4,1.52A88.93,88.93,0,0,1,256,325c-48.82,0-88.75-39.37-88.75-87.49h0V87.48a80.38,80.38,0,0,1,1.27-12.1h-.42c.14-1,.53-2,.7-3,.42-2.33,1-4.59,1.62-6.85a88.16,88.16,0,0,1,2.89-9.1c.85-2.19,1.84-4.3,2.86-6.42a87.15,87.15,0,0,1,4.52-8.15c1.24-2,2.51-3.92,3.92-5.79a88.17,88.17,0,0,1,6-7.13c1.59-1.73,3.14-3.42,4.83-5a91.27,91.27,0,0,1,7.34-5.93c1.84-1.38,3.6-2.79,5.54-4a98,98,0,0,1,8.68-4.69c2-1,3.88-2,5.93-2.86a89.31,89.31,0,0,1,10.58-3.25c1.84-.49,3.56-1.16,5.43-1.52A88.11,88.11,0,0,1,256,0C304.84,0,344.74,39.37,344.74,87.48Zm41,131.72A18.05,18.05,0,0,1,404,237.13h-.11A144,144,0,0,1,360.61,340.2a147.78,147.78,0,0,1-74,39.55v97.08h43.07a17.77,17.77,0,0,1,17.85,17.57h0A17.78,17.78,0,0,1,329.64,512H181.73a17.76,17.76,0,0,1-17.88-17.6h0a17.75,17.75,0,0,1,17.88-17.57H224.8V379.61a147.52,147.52,0,0,1-73.41-39.4A144,144,0,0,1,108.1,237.13H108a18.21,18.21,0,0,1,36.41,0h-.11a108.83,108.83,0,0,0,32.77,77.75A112.06,112.06,0,0,0,256,347.15v-.07h0v.07a112.19,112.19,0,0,0,78.88-32.28,109,109,0,0,0,32.77-77.75h-.07A18,18,0,0,1,385.76,219.21Z" fill-rule="evenodd" fill="url(#linear-gradient)"/></svg>