<svg id="Layer_1" data-name="Layer 1" xmlns="http://www.w3.org/2000/svg" xmlns:xlink="http://www.w3.org/1999/xlink" viewBox="0 0 512 512"><defs><linearGradient id="New_Gradient_Swatch_1" x1="256" x2="256" y2="512" gradientUnits="userSpaceOnUse"><stop offset="0" stop-color="#ededee"/><stop offset="0.76" stop-color="#cfd0d2"/><stop offset="1" stop-color="#a6a8ab"/></linearGradient><linearGradient id="New_Gradient_Swatch_2" x1="256" y1="412.92" x2="256" y2="99.08" gradientUnits="userSpaceOnUse"><stop offset="0" stop-color="#231f20"/><stop offset="1" stop-color="#6d6e70"/></linearGradient></defs><title>trash</title><path d="M256,512c141,0,256-115,256-256S397,0,256,0,0,115,0,256,115,512,256,512Z" fill-rule="evenodd" fill="url(#New_Gradient_Swatch_1)"/><path d="M138.17,109.45l91.28,13,1.17-8.21a17.67,17.67,0,0,1,19.92-15h0a17.67,17.67,0,0,1,15,19.92l-1.17,8.2,91.3,13a13.51,13.51,0,0,1,11.43,15.22h0A13.52,13.52,0,0,1,351.84,167l-217.47-30.9a13.49,13.49,0,0,1-11.43-15.22h0a13.51,13.51,0,0,1,15.23-11.44Zm31.65,59H319.68c19.68,0,37.8,13.74,35.79,30.33L333.1,382.59c-2,16.58-16.1,30.33-35.79,30.33H187.72c-19.67,0-34.17-13.71-35.78-30.33L134,198.74c-1.61-16.62,16.1-30.33,35.79-30.33Zm20.55,27.37c-6.42,0-11.41,7.12-11.09,15.81l5.65,158.13c.31,8.69,5.81,15.81,12.22,15.81h0c6.41,0,11.4-7.12,11.1-15.81L202.59,211.6c-.31-8.69-5.81-15.81-12.22-15.81Zm54.85,0c-6.42,0-11.67,7.12-11.67,15.81V369.73c0,8.69,5.25,15.81,11.67,15.81h0c6.4,0,11.65-7.12,11.65-15.81V211.6c0-8.69-5.25-15.81-11.65-15.81Zm54,0c-6.42,0-11.91,7.12-12.23,15.81L281.3,369.73c-.31,8.69,4.68,15.81,11.09,15.81h0c6.41,0,11.92-7.12,12.23-15.81l5.66-158.13c.32-8.69-4.68-15.81-11.09-15.81Z" fill="#fff" fill-rule="evenodd"/><path d="M149.16,109.45l91.29,13,1.17-8.21a17.66,17.66,0,0,1,19.92-15h0a17.65,17.65,0,0,1,14.95,19.92l-1.16,8.2,91.29,13a13.5,13.5,0,0,1,11.44,15.22h0A13.51,13.51,0,0,1,362.84,167l-217.47-30.9a13.5,13.5,0,0,1-11.43-15.22h0a13.51,13.51,0,0,1,15.23-11.44Zm31.65,59H330.67c19.68,0,37.8,13.74,35.78,30.33L344.08,382.59c-2,16.58-16.1,30.33-35.78,30.33H198.71c-19.68,0-34.18-13.71-35.79-30.33L145,198.74c-1.62-16.62,16.1-30.33,35.78-30.33Zm20.55,27.37c-6.41,0-11.41,7.12-11.09,15.81l5.66,158.13c.3,8.69,5.81,15.81,12.21,15.81h0c6.42,0,11.4-7.12,11.1-15.81L213.58,211.6c-.31-8.69-5.8-15.81-12.22-15.81Zm54.85,0c-6.41,0-11.67,7.12-11.67,15.81V369.73c0,8.69,5.25,15.81,11.67,15.81h0c6.4,0,11.65-7.12,11.65-15.81V211.6c0-8.69-5.25-15.81-11.65-15.81Zm54,0c-6.41,0-11.9,7.12-12.22,15.81L292.3,369.73c-.31,8.69,4.68,15.81,11.09,15.81h0c6.41,0,11.91-7.12,12.23-15.81l5.66-158.13c.32-8.69-4.68-15.81-11.09-15.81Z" fill-rule="evenodd" fill="url(#New_Gradient_Swatch_2)"/></svg>