<?xml version="1.0" encoding="UTF-8" standalone="no"?>
<svg xmlns:dc="http://purl.org/dc/elements/1.1/" xmlns:cc="http://creativecommons.org/ns#" xmlns:rdf="http://www.w3.org/1999/02/22-rdf-syntax-ns#" xmlns:svg="http://www.w3.org/2000/svg" xmlns="http://www.w3.org/2000/svg" viewBox="0 0 746 182" height="182" width="746" xml:space="preserve" id="svg2" version="1.1">
  <metadata id="metadata8"></metadata>
  <defs id="defs6">
    <clipPath id="clipPath28">
      <path id="path26" d="M 3,7 H 557 V 70 H 3 Z"></path>
    </clipPath>
    <clipPath id="clipPath34">
      <path id="path32" d="M 62.688,44.113 H 10.547 V 32.801 h 46.297 z m 9.078,24.969 H 10.547 V 57.723 H 65.875 Z M 71.797,18.957 H 9.375 L 3.516,7.645 h 62.359 c 1.969,3.781 3.941,7.554 5.922,11.312 z m 68.508,50.125 H 87.758 l -5.86,-11.328 h 56.094 c 1.031,0 1.867,-0.316 2.516,-0.953 0.738,-0.75 1.269,-1.711 1.594,-2.891 0.3,-1.031 0.453,-2.066 0.453,-3.109 0,-1.125 -0.149,-2.219 -0.438,-3.281 -0.281,-1.063 -0.793,-1.915 -1.531,-2.563 -0.625,-0.582 -1.492,-0.875 -2.594,-0.875 H 91.945 c -1.937,0 -3.672,-0.57 -5.203,-1.719 -1.406,-1.039 -2.605,-2.441 -3.594,-4.203 -1.968,-3.57 -2.953,-7.742 -2.953,-12.515 0,-2.426 0.301,-4.75 0.907,-6.969 1.039,-4.313 2.929,-7.469 5.671,-9.469 1.477,-1.039 3.204,-1.562 5.172,-1.562 h 52.485 c 2.031,3.761 4.023,7.531 5.984,11.312 H 94.336 c -0.625,0 -1.121,0.078 -1.484,0.234 -0.356,0.149 -0.715,0.403 -1.079,0.766 -0.742,0.75 -1.261,1.727 -1.562,2.922 l -0.031,0.156 c -0.325,0.906 -0.485,1.899 -0.485,2.969 0,1.094 0.145,2.148 0.438,3.156 v 0.047 c 0.301,1.094 0.801,1.977 1.5,2.641 0.625,0.605 1.488,0.906 2.594,0.906 h 46.078 c 2.812,0 5.25,1.242 7.312,3.719 1.676,2.086 2.883,4.726 3.625,7.922 0.531,2.273 0.797,4.605 0.797,7 0,2.886 -0.422,5.632 -1.266,8.234 -0.835,2.594 -2.121,4.809 -3.859,6.641 -1.867,1.875 -4.07,2.812 -6.609,2.812 z m 90.289,0 h -47.266 l -5.844,-11.359 h 43.141 V 44.113 H 192.922 V 32.754 h 37.672 z M 170.141,33.113 v 11 h -9.797 V 33.52 c 0,-2.239 0.238,-4.438 0.718,-6.594 0.489,-2.164 1.196,-4.219 2.126,-6.156 0.945,-1.926 2.082,-3.688 3.406,-5.282 1.32,-1.601 2.804,-3.004 4.453,-4.203 1.656,-1.195 3.453,-2.101 5.391,-2.719 1.937,-0.613 3.957,-0.921 6.062,-0.921 h 40.234 l 0.516,1 3.734,7.234 1.594,3.078 h -45.875 c -1.18,0 -2.262,0.152 -3.25,0.453 -0.992,0.293 -1.98,0.774 -2.969,1.438 -1,0.636 -1.871,1.359 -2.609,2.172 -0.742,0.812 -1.406,1.781 -2,2.906 -0.605,1.117 -1.047,2.242 -1.328,3.375 -0.274,1.137 -0.406,2.406 -0.406,3.812 z m 87.757,35.969 h -9.796 V 7.645 h 9.796 z m 45.735,0 h -9.906 l 0.031,-50.078 h -24.016 l -5.89,-11.359 h 64.562 l 5.891,11.359 h -30.641 z m 95.82,-24.969 H 347.312 V 32.801 h 46.297 z m 9.078,24.969 H 347.312 V 57.723 h 55.329 z m 0.031,-50.125 h -62.421 l -5.86,-11.312 h 62.36 c 1.968,3.781 3.941,7.554 5.921,11.312 z m 70.485,50.125 h -40.891 c -3.968,0 -7.246,-0.828 -9.828,-2.484 -2.824,-1.789 -5.156,-4.114 -7,-6.969 -3.855,-5.988 -5.781,-13.102 -5.781,-21.344 0,-8.32 1.914,-15.457 5.75,-21.406 1.988,-3.031 4.398,-5.328 7.234,-6.891 2.844,-1.562 6.016,-2.343 9.516,-2.343 h 33.172 l 5.859,11.312 h -38.75 c -1.75,0 -3.289,0.309 -4.609,0.922 -1.313,0.617 -2.559,1.605 -3.735,2.969 -3.343,3.867 -5.015,9.168 -5.015,15.906 0,4.324 0.863,8.219 2.593,11.687 1.083,2.188 2.536,3.95 4.36,5.282 1.82,1.336 3.969,2 6.437,2 h 40.688 z m 77.683,0 h -9.828 V 43.645 h -46.297 v 25.437 h -9.828 V 7.645 h 9.828 v 25.718 h 46.297 V 7.645 h 9.828 z M 228.691,69.027 h -44.515 c -4.324,0 -7.891,-0.824 -10.703,-2.468 -3.063,-1.782 -5.602,-4.098 -7.61,-6.954 -4.199,-5.976 -6.297,-13.082 -6.297,-21.312 0,-8.301 2.082,-15.422 6.25,-21.359 2.164,-3.032 4.789,-5.321 7.875,-6.875 3.094,-1.563 6.551,-2.344 10.375,-2.344 h 36.11 l 6.359,11.297 h -42.172 c -1.906,0 -3.578,0.308 -5.015,0.922 -1.43,0.617 -2.782,1.601 -4.063,2.953 -3.648,3.855 -5.469,9.152 -5.469,15.89 0,4.313 0.942,8.2 2.829,11.657 1.175,2.179 2.753,3.933 4.734,5.265 1.988,1.336 4.328,2 7.016,2 h 44.296 z"></path>
    </clipPath>
    <clipPath id="clipPath44">
      <path id="path42" d="M 0,0 H 560 V 137 H 0 Z"></path>
    </clipPath>
  </defs>
  <g transform="matrix(1.3333333,0,0,1.3333333,0,4.55e-6)" id="g10">
    <g id="g12">
      <path id="path14" style="fill:#005193;fill-opacity:1;fill-rule:nonzero;stroke:none" d="M 22.016,97.992 H 5.457 v 2.656 l 11.047,0.04 -0.012,2.851 L 5.457,103.5 v 2.645 h 16.559 v 2.851 H 2.598 V 95.145 h 19.418 v 2.851 z m 25.039,8.137 0.05,2.82 -1.417,0.024 c -0.016,0 -1.25,0.023 -3.665,0.023 -1.222,0 -2.746,-0.008 -4.57,-0.023 -2.941,-0.024 -5.289,-0.657 -6.988,-1.879 -1.684,-1.215 -2.613,-2.985 -2.613,-4.977 0,-1.992 0.937,-3.765 2.636,-4.988 1.688,-1.211 4.098,-1.859 6.973,-1.871 5.41,-0.02 8.187,0 8.215,0 l 1.414,0.012 -0.02,2.824 -1.418,-0.012 c -0.027,0 -2.789,-0.023 -8.179,0 -4.188,0.016 -6.789,1.563 -6.789,4.035 0,1.094 0.484,2 1.441,2.688 1.195,0.859 3.047,1.328 5.352,1.347 5.378,0.047 8.136,0 8.164,0 z M 71.16,96.414 c 1.117,1.102 1.11,2.703 1.094,5.121 0,0.18 -0.004,0.367 -0.004,0.559 -0.004,1.437 -0.008,2.472 -0.16,3.347 -0.129,0.747 -0.426,1.821 -1.516,2.543 -1.379,0.918 -3.437,0.938 -7.953,0.985 -0.707,0.008 -1.355,0.011 -1.957,0.011 -3.574,0 -5.375,-0.187 -6.523,-1.328 -1.196,-1.183 -1.188,-2.925 -1.18,-5.57 0.012,-2.945 0.019,-4.723 1.519,-5.828 1.293,-0.953 3.168,-0.977 7.286,-1.031 l 0.82,-0.012 c 5.129,-0.074 7.25,-0.106 8.574,1.203 z m -1.75,5.106 c 0.008,-1.391 0.02,-2.829 -0.254,-3.098 -0.336,-0.328 -1.84,-0.406 -3.847,-0.406 -0.825,0 -1.735,0.011 -2.684,0.027 l -0.824,0.012 c -2.946,0.039 -5.078,0.066 -5.633,0.476 -0.352,0.258 -0.359,1.789 -0.367,3.563 -0.004,1.648 -0.012,3.203 0.344,3.551 0.554,0.55 3.55,0.519 6.445,0.492 3.328,-0.032 5.73,-0.059 6.41,-0.508 0.398,-0.262 0.402,-1.641 0.41,-3.543 0,-0.195 0,-0.387 0,-0.566 z m 11.543,4.57 h 16.559 v 2.851 H 78.094 V 95.09 h 2.859 z m 41.84,-8.098 h -16.559 v 2.656 l 11.043,0.04 -0.011,2.851 -11.032,-0.039 v 2.645 h 16.559 v 2.851 H 103.371 V 95.145 h 19.422 v 2.851 z m 21.812,0.067 c -0.265,0.144 -0.535,0.39 -0.535,1.105 0,0.555 0.18,0.859 0.641,1.082 0.469,0.223 0.992,0.242 1.016,0.242 l 10.398,0.039 c 1.809,0 4.504,1.114 4.504,4.176 0,3.063 -2.508,4.176 -4.191,4.176 h -15.231 v -2.852 h 15.219 c 0.125,-0.004 0.496,-0.05 0.804,-0.218 0.266,-0.149 0.536,-0.395 0.536,-1.106 0,-0.555 -0.18,-0.859 -0.641,-1.082 -0.465,-0.223 -0.988,-0.242 -1.016,-0.242 l -10.39,-0.047 v 0.008 c -1.813,0 -4.512,-1.113 -4.512,-4.176 0,-3.066 2.508,-4.176 4.191,-4.176 h 15.231 V 97.84 H 145.41 c -0.125,0.004 -0.496,0.051 -0.805,0.219 z M 185.883,95 l 0.051,6.922 c 0.023,1.531 -0.598,3.019 -1.746,4.187 -1.215,1.239 -3.583,2.723 -7.954,2.754 -0.043,0 -0.086,0 -0.125,0 -3.308,0 -6.07,-0.945 -7.789,-2.672 -1.183,-1.187 -1.824,-2.699 -1.804,-4.257 l -0.051,-6.911 2.859,-0.023 0.051,6.941 v 0.016 c -0.012,0.805 0.324,1.574 0.973,2.227 1.195,1.199 3.277,1.847 5.867,1.828 2.64,-0.02 4.746,-0.692 5.93,-1.895 0.621,-0.633 0.941,-1.379 0.929,-2.16 v -0.008 l -0.051,-6.926 z m 20.863,-0.012 c 1.813,0 4.512,1.11 4.512,4.176 0,3.063 -2.508,4.172 -4.192,4.172 h -12.394 l -0.02,5.508 -2.863,-0.012 0.047,-12.418 v -1.426 h 0.004 V 94.98 l 1.433,0.008 z m 1.113,5.278 c 0.266,-0.145 0.539,-0.391 0.539,-1.102 0,-0.574 -0.195,-0.883 -0.695,-1.105 -0.453,-0.204 -0.949,-0.223 -0.953,-0.223 h -12.051 v 2.652 h 12.356 c 0.125,-0.004 0.496,-0.05 0.804,-0.222 z m 28.657,-2.274 h -16.559 v 2.656 l 11.043,0.04 -0.012,2.851 -11.035,-0.039 v 2.645 h 16.563 v 2.851 H 217.094 V 95.145 h 19.422 v 2.851 z m 23.293,8.024 1.414,-0.024 0.043,2.824 -1.414,0.02 c -0.223,0.004 -0.473,0.008 -0.743,0.008 -1.968,0 -5.121,-0.196 -7.113,-2.153 -0.887,-0.871 -1.445,-1.976 -1.672,-3.3 h -5.121 l -0.023,5.449 -2.832,-0.008 0.047,-12.297 v -1.414 h 0.003 v -0.004 l 1.414,0.004 h 13.344 c 1.797,0 4.465,1.102 4.465,4.137 0,3.031 -2.48,4.133 -4.148,4.133 h -4.243 c 0.153,0.515 0.399,0.945 0.75,1.293 1.426,1.398 4.399,1.351 5.829,1.332 z m -14.582,-5.45 h 12.234 c 0.125,-0.004 0.496,-0.05 0.797,-0.214 0.265,-0.149 0.535,-0.391 0.535,-1.094 0,-0.57 -0.195,-0.875 -0.688,-1.098 -0.449,-0.199 -0.941,-0.215 -0.945,-0.215 h -11.933 z m 25.089,8.446 H 267.48 V 95.297 h 2.836 z m 25.27,-11.02 h -16.559 v 2.656 l 11.043,0.04 -0.011,2.851 -11.032,-0.039 v 2.645 h 16.559 v 2.851 H 276.164 V 95.145 h 19.422 v 2.851 z M 320.84,95 l 0.051,6.922 c 0.019,1.531 -0.598,3.019 -1.746,4.187 -1.215,1.239 -3.583,2.723 -7.954,2.754 -0.043,0 -0.086,0 -0.125,0 -3.308,0 -6.07,-0.945 -7.793,-2.672 -1.179,-1.187 -1.82,-2.699 -1.8,-4.257 l -0.051,-6.911 2.859,-0.023 0.051,6.941 v 0.016 c -0.012,0.805 0.324,1.574 0.973,2.227 1.195,1.199 3.277,1.847 5.867,1.828 2.64,-0.02 4.746,-0.692 5.93,-1.895 0.617,-0.633 0.941,-1.379 0.929,-2.16 v -0.008 l -0.051,-6.926 z m 23.367,11.016 1.414,-0.024 0.043,2.824 -1.414,0.02 c -0.223,0.004 -0.473,0.008 -0.742,0.008 -1.969,0 -5.121,-0.196 -7.113,-2.153 -0.887,-0.871 -1.446,-1.976 -1.672,-3.3 h -5.121 l -0.024,5.449 -2.832,-0.008 0.047,-12.297 v -1.414 h 0.004 v -0.004 l 1.414,0.004 h 13.344 c 1.797,0 4.465,1.102 4.465,4.137 0,3.031 -2.481,4.133 -4.149,4.133 h -4.242 c 0.152,0.515 0.398,0.945 0.75,1.293 1.426,1.398 4.398,1.351 5.828,1.332 z m -14.582,-5.45 h 12.234 c 0.125,-0.004 0.496,-0.05 0.797,-0.214 0.266,-0.149 0.535,-0.391 0.535,-1.094 0,-0.57 -0.195,-0.875 -0.687,-1.098 -0.449,-0.199 -0.942,-0.215 -0.945,-0.215 h -11.934 z m 41.676,-2.574 h -16.559 v 2.656 l 11.043,0.04 -0.012,2.851 -11.031,-0.039 v 2.645 h 16.559 v 2.851 H 351.879 V 95.145 h 19.422 v 2.851 z m 36.066,-0.148 c 1.164,1.176 1.793,2.683 1.77,4.246 -0.028,1.933 -0.961,3.695 -2.633,4.965 -1.738,1.32 -4.184,2.019 -7.074,2.019 -5.52,0 -8.297,-0.078 -8.325,-0.082 l -1.386,-0.039 V 95.145 h 9.711 c 4.351,0 6.718,1.464 7.937,2.699 z m -7.937,8.383 c 4.687,0 6.816,-2.098 6.847,-4.18 0.012,-0.801 -0.316,-1.563 -0.949,-2.203 -1.18,-1.192 -3.277,-1.852 -5.898,-1.852 h -6.852 v 8.184 c 1.328,0.019 3.61,0.051 6.852,0.051 z m 34.988,-8.235 h -16.563 v 2.656 l 11.047,0.04 -0.011,2.851 -11.036,-0.039 v 2.645 h 16.563 v 2.851 H 414.996 V 95.145 h 19.422 v 2.851 z m 37.644,4.184 c -0.023,1.656 0,5.379 0,5.414 l 0.012,1.422 h -9.625 c -2.89,0 -5.312,-0.645 -6.996,-1.864 -1.687,-1.222 -2.617,-2.996 -2.617,-4.996 0,-1.656 0.625,-3.152 1.812,-4.324 1.7,-1.68 4.399,-2.558 7.813,-2.531 2.078,0.015 8.121,0 8.184,0 l 1.414,-0.004 0.007,2.82 -1.414,0.004 c -0.062,0 -6.121,0.016 -8.214,0 -2.606,-0.019 -4.661,0.59 -5.793,1.715 -0.649,0.641 -0.977,1.422 -0.977,2.32 0,2.489 2.598,4.036 6.781,4.036 h 6.774 c 0,-0.774 -0.004,-1.747 0,-2.622 h -5.457 v -2.824 h 8.32 z m 25.301,-4.184 h -16.558 v 2.656 l 11.043,0.04 -0.012,2.851 -11.035,-0.039 v 2.645 h 16.562 v 2.851 H 477.941 V 95.145 h 19.422 v 2.851 z m 22.395,-2.863 h 2.859 v 13.66 l -16.558,-8.617 v 8.808 h -2.864 V 95.32 l 16.559,8.621 v -8.812 z m 11.527,13.883 h -2.832 V 95.297 h 2.832 z m 25.27,-11.02 h -16.559 v 2.656 l 11.043,0.04 -0.012,2.851 -11.031,-0.039 v 2.645 h 16.559 v 2.851 H 537.133 V 95.145 h 19.422 v 2.851 z"></path>
      <path id="path16" style="fill:#005193;fill-opacity:1;fill-rule:nonzero;stroke:none" d="M 5.066,130.965 H 2.684 v -12.664 h 2.382 z m 18.875,-12.817 h 2.407 v 12.614 l -13.946,-7.961 v 8.137 H 9.996 v -12.614 l 13.945,7.957 z m 23.676,2.657 H 33.672 v 2.449 h 9.297 v 2.633 h -9.297 v 5.078 h -2.41 v -12.789 h 16.355 v 2.633 z m 20.242,-1.473 c 0.942,1.02 0.934,2.496 0.922,4.73 0,0.165 -0.004,0.336 -0.004,0.516 -0.004,1.324 -0.007,2.285 -0.132,3.09 -0.11,0.691 -0.36,1.684 -1.278,2.352 -1.16,0.847 -2.898,0.863 -6.699,0.906 -0.594,0.008 -1.141,0.012 -1.648,0.012 -3.012,0 -4.524,-0.176 -5.493,-1.227 -1.007,-1.094 -1.004,-2.703 -0.992,-5.141 0.008,-2.722 0.012,-4.367 1.277,-5.386 1.086,-0.879 2.668,-0.903 6.133,-0.954 l 0.696,-0.007 c 4.316,-0.071 6.105,-0.098 7.218,1.109 z m -1.472,4.715 c 0.008,-1.285 0.015,-2.613 -0.215,-2.859 -0.281,-0.305 -1.551,-0.376 -3.238,-0.376 -0.696,0 -1.465,0.012 -2.262,0.024 l -0.692,0.012 c -2.484,0.035 -4.277,0.062 -4.746,0.441 -0.296,0.238 -0.304,1.652 -0.308,3.289 -0.004,1.52 -0.012,2.957 0.289,3.281 0.465,0.508 2.988,0.477 5.43,0.453 2.8,-0.031 4.824,-0.054 5.394,-0.468 0.336,-0.246 0.34,-1.516 0.344,-3.274 0.004,-0.183 0.004,-0.355 0.004,-0.523 z m 22.011,4.152 1.196,-0.019 0.035,2.605 -1.191,0.02 c -0.188,0.004 -0.399,0.007 -0.626,0.007 -1.656,0 -4.312,-0.179 -5.992,-1.988 -0.746,-0.804 -1.218,-1.824 -1.406,-3.051 h -4.312 l -0.02,5.036 -2.387,-0.008 0.039,-11.356 v -1.304 h 0.004 v -0.004 l 1.192,0.004 h 11.238 c 1.512,0 3.762,1.015 3.762,3.816 0,2.801 -2.09,3.82 -3.496,3.82 h -3.575 c 0.129,0.477 0.34,0.871 0.637,1.192 1.199,1.289 3.699,1.25 4.902,1.23 z m -12.277,-5.031 h 10.305 c 0.105,-0.004 0.414,-0.047 0.672,-0.199 0.218,-0.137 0.445,-0.36 0.445,-1.012 0,-0.523 -0.16,-0.809 -0.578,-1.012 -0.379,-0.183 -0.789,-0.199 -0.793,-0.199 H 76.121 Z m 26.918,1.113 8.18,-5.957 v 12.614 h -2.41 v -7.696 l -5.77,4.203 -5.766,-4.203 v 7.696 h -2.41 v -12.614 z m 21.473,-7.125 9.418,13.672 h -3.028 l -2.636,-3.812 h -7.508 l -2.598,3.812 h -2.992 z m -1.95,7.227 h 3.899 l -1.949,-2.836 z m 11.227,-6.367 h 16.356 v 2.632 h -6.973 v 10.196 h -2.41 v -10.196 h -6.973 z m 23.672,12.949 h -2.383 v -12.664 h 2.383 z m 21.617,-1.899 -1.316,2.184 -1.289,-0.93 c -1.164,0.45 -2.883,0.469 -5.95,0.504 -0.593,0.004 -1.14,0.012 -1.644,0.012 -3.012,0 -4.527,-0.176 -5.496,-1.227 -1.008,-1.093 -1,-2.703 -0.992,-5.144 0.007,-2.719 0.015,-4.363 1.277,-5.383 1.09,-0.879 2.672,-0.902 6.137,-0.953 l 0.691,-0.012 c 4.32,-0.066 6.106,-0.094 7.219,1.113 0.941,1.02 0.933,2.497 0.922,4.731 0,0.164 0,0.336 0,0.516 -0.004,1.324 -0.008,2.285 -0.137,3.089 -0.043,0.274 -0.109,0.594 -0.227,0.922 z m -8.578,-0.859 c 1.125,-0.012 2.121,-0.019 2.953,-0.059 l -2.726,-1.957 1.316,-2.183 4.121,2.965 c 0.07,-0.59 0.074,-1.461 0.078,-2.508 0,-0.18 0,-0.352 0.004,-0.52 0.004,-1.285 0.012,-2.613 -0.215,-2.859 -0.285,-0.305 -1.551,-0.379 -3.242,-0.379 -0.695,0 -1.461,0.016 -2.258,0.027 l -0.695,0.008 c -2.481,0.039 -4.277,0.063 -4.746,0.446 -0.297,0.238 -0.301,1.652 -0.305,3.289 -0.008,1.519 -0.012,2.957 0.285,3.277 0.469,0.508 2.992,0.48 5.43,0.457 z m 29.863,-10.18 0.043,6.391 c 0.016,1.414 -0.508,2.789 -1.472,3.867 -1.024,1.145 -3.016,2.516 -6.7,2.543 -0.035,0 -0.07,0 -0.105,0 -2.785,0 -5.113,-0.871 -6.559,-2.465 -0.996,-1.097 -1.535,-2.492 -1.519,-3.933 l -0.043,-6.383 2.41,-0.02 0.043,6.411 v 0.015 c -0.012,0.742 0.273,1.453 0.816,2.055 1.008,1.105 2.762,1.707 4.942,1.687 2.222,-0.015 3.996,-0.636 4.992,-1.75 0.523,-0.586 0.793,-1.273 0.785,-1.992 v -0.012 l -0.043,-6.394 z m 21.328,2.766 h -13.945 v 2.449 l 9.301,0.039 -0.008,2.633 -9.293,-0.039 v 2.441 h 13.945 v 2.633 H 205.336 V 118.16 h 16.355 z m 31.864,0 h -13.946 v 2.449 l 9.301,0.039 -0.008,2.633 -9.293,-0.039 v 2.441 h 13.946 v 2.633 H 237.199 V 118.16 h 16.356 z m 4.914,-2.777 h 16.355 v 2.632 h -6.972 v 10.196 h -2.411 v -10.196 h -6.972 z m 46.75,2.636 c 0.98,1.086 1.508,2.481 1.492,3.922 -0.023,1.785 -0.813,3.41 -2.219,4.586 -1.465,1.219 -3.523,1.863 -5.961,1.863 -4.644,0 -6.984,-0.074 -7.008,-0.074 l -1.168,-0.039 v -12.75 h 8.176 c 3.668,0 5.66,1.356 6.688,2.492 z m -6.688,7.743 c 3.949,0 5.742,-1.938 5.77,-3.86 0.008,-0.742 -0.266,-1.445 -0.797,-2.035 -0.996,-1.102 -2.762,-1.707 -4.973,-1.707 h -5.765 v 7.551 c 1.117,0.023 3.039,0.051 5.765,0.051 z M 328,120.793 h -13.945 v 2.449 l 9.3,0.039 -0.011,2.633 -9.293,-0.039 v 2.441 H 328 v 2.633 H 311.645 V 118.16 H 328 Z m 15.508,-2.777 h 16.355 v 2.632 h -6.972 v 10.196 h -2.411 v -10.196 h -6.972 z m 37.644,2.777 h -13.945 v 2.449 l 9.301,0.039 -0.008,2.633 -9.293,-0.039 v 2.441 h 13.945 v 2.633 H 364.797 V 118.16 h 16.355 z m 19.547,7.508 0.043,2.609 -1.195,0.02 c -0.016,0 -1.055,0.019 -3.086,0.019 -1.027,0 -2.313,-0.004 -3.848,-0.019 -2.476,-0.024 -4.457,-0.606 -5.886,-1.735 -1.418,-1.125 -2.2,-2.754 -2.2,-4.597 0,-1.84 0.789,-3.477 2.219,-4.606 1.422,-1.117 3.449,-1.715 5.871,-1.726 4.559,-0.02 6.899,0 6.922,0 l 1.191,0.011 -0.019,2.606 -1.191,-0.012 c -0.024,0 -2.352,-0.019 -6.891,0 -3.527,0.016 -5.715,1.445 -5.715,3.727 0,1.011 0.406,1.847 1.211,2.484 1.008,0.793 2.566,1.223 4.508,1.242 4.531,0.043 6.851,0 6.875,0 z m 18.918,-10.125 h 2.41 v 12.789 h -2.41 v -5.078 h -11.535 v 5.078 h -2.41 v -12.789 h 2.41 v 5.078 h 11.535 z m 21.27,-0.028 h 2.406 v 12.614 l -13.945,-7.961 v 8.137 h -2.407 v -12.614 l 13.946,7.957 z m 22.648,1.184 c 0.942,1.02 0.934,2.496 0.922,4.73 0,0.165 0,0.336 0,0.516 -0.008,1.324 -0.012,2.285 -0.137,3.09 -0.109,0.691 -0.359,1.684 -1.277,2.352 -1.16,0.847 -2.895,0.863 -6.699,0.906 -0.594,0.008 -1.141,0.012 -1.645,0.012 -3.011,0 -4.527,-0.176 -5.496,-1.227 -1.008,-1.094 -1,-2.703 -0.992,-5.141 0.008,-2.722 0.016,-4.367 1.277,-5.386 1.09,-0.879 2.672,-0.903 6.137,-0.954 l 0.691,-0.007 c 4.321,-0.071 6.106,-0.098 7.219,1.109 z m -1.473,4.715 c 0.008,-1.285 0.016,-2.613 -0.214,-2.859 -0.282,-0.305 -1.551,-0.376 -3.239,-0.376 -0.695,0 -1.461,0.012 -2.261,0.024 l -0.692,0.012 c -2.484,0.035 -4.277,0.062 -4.746,0.441 -0.297,0.238 -0.301,1.652 -0.308,3.289 -0.004,1.52 -0.008,2.957 0.289,3.281 0.464,0.508 2.988,0.477 5.429,0.453 2.801,-0.031 4.825,-0.054 5.395,-0.468 0.336,-0.246 0.34,-1.516 0.347,-3.274 0,-0.183 0,-0.355 0,-0.523 z m 9.723,4.223 h 13.945 v 2.628 h -16.355 v -12.789 h 2.41 z m 34.203,-8.938 c 0.946,1.02 0.938,2.496 0.922,4.73 0,0.165 0,0.336 0,0.516 -0.004,1.324 -0.008,2.285 -0.137,3.09 -0.105,0.691 -0.359,1.684 -1.273,2.352 -1.164,0.847 -2.898,0.863 -6.699,0.906 -0.594,0.008 -1.141,0.012 -1.649,0.012 -3.011,0 -4.527,-0.176 -5.492,-1.227 -1.008,-1.094 -1.004,-2.703 -0.996,-5.141 0.012,-2.722 0.016,-4.367 1.277,-5.386 1.09,-0.879 2.672,-0.903 6.137,-0.954 l 0.692,-0.007 c 4.32,-0.071 6.109,-0.098 7.218,1.109 z m -1.468,4.715 c 0.007,-1.285 0.011,-2.613 -0.215,-2.859 -0.282,-0.305 -1.551,-0.376 -3.243,-0.376 -0.695,0 -1.46,0.012 -2.257,0.024 l -0.696,0.012 c -2.48,0.035 -4.277,0.062 -4.746,0.441 -0.297,0.238 -0.301,1.652 -0.304,3.289 -0.008,1.52 -0.012,2.957 0.285,3.281 0.468,0.508 2.992,0.477 5.429,0.453 2.805,-0.031 4.829,-0.054 5.399,-0.468 0.332,-0.246 0.34,-1.516 0.344,-3.274 0,-0.183 0,-0.355 0.004,-0.523 z m 23.503,0.605 c -0.019,1.532 0,4.969 0,5 l 0.008,1.313 h -8.105 c -2.434,0 -4.473,-0.594 -5.891,-1.723 -1.422,-1.129 -2.207,-2.765 -2.207,-4.609 0,-1.528 0.531,-2.91 1.531,-3.996 1.43,-1.551 3.703,-2.36 6.575,-2.336 1.754,0.015 6.843,0 6.894,0 l 1.192,-0.004 0.007,2.605 -1.195,0.004 c -0.051,0 -5.148,0.016 -6.914,0 -2.195,-0.019 -3.926,0.543 -4.879,1.582 -0.547,0.59 -0.824,1.313 -0.824,2.145 0,2.297 2.187,3.726 5.711,3.726 h 5.707 c -0.004,-0.714 -0.004,-1.613 -0.004,-2.421 h -4.594 v -2.61 h 7.008 z m 7.336,6.313 h -2.386 v -12.664 h 2.386 z m 21.282,-10.172 h -13.946 v 2.449 l 9.301,0.039 -0.008,2.633 -9.293,-0.039 v 2.441 h 13.946 v 2.633 H 540.285 V 118.16 h 16.356 z"></path>
      <path id="path18" style="fill:#005193;fill-opacity:1;fill-rule:nonzero;stroke:none" d="m 2.598,81.445 h 553.957 v 1.809 H 2.598 Z"></path>
      <path id="path20" style="fill:#005193;fill-opacity:1;fill-rule:nonzero;stroke:none" d="m 347.297,25.566 h 10.895 v 43.266 h -10.895 z"></path>
    </g>
    <g id="g22">
      <g clip-path="url(#clipPath28)" id="g24">
        <g clip-path="url(#clipPath34)" id="g30">
          <g id="g36">
            <g id="g38">
              <g clip-path="url(#clipPath44)" id="g40">
                <g id="g46">
                  <path id="path48" style="fill:#005193;fill-opacity:1;fill-rule:nonzero;stroke:none" d="M 62.688,44.113 H 10.547 V 32.801 h 46.297 z m 9.078,24.969 H 10.547 V 57.723 H 65.875 Z M 71.797,18.957 H 9.375 L 3.516,7.645 h 62.359 c 1.969,3.781 3.941,7.554 5.922,11.312 z"></path>
                  <path id="path50" style="fill:#005193;fill-opacity:1;fill-rule:nonzero;stroke:none" d="M 140.305,69.082 H 87.758 l -5.86,-11.328 h 56.094 c 1.031,0 1.867,-0.316 2.516,-0.953 0.738,-0.75 1.269,-1.711 1.594,-2.891 0.3,-1.031 0.453,-2.066 0.453,-3.109 0,-1.125 -0.149,-2.219 -0.438,-3.281 -0.281,-1.063 -0.793,-1.915 -1.531,-2.563 -0.625,-0.582 -1.492,-0.875 -2.594,-0.875 H 91.945 c -1.937,0 -3.672,-0.57 -5.203,-1.719 -1.406,-1.039 -2.605,-2.441 -3.594,-4.203 -1.968,-3.57 -2.953,-7.742 -2.953,-12.515 0,-2.426 0.301,-4.75 0.907,-6.969 1.039,-4.313 2.929,-7.469 5.671,-9.469 1.477,-1.039 3.204,-1.562 5.172,-1.562 h 52.485 c 2.031,3.761 4.023,7.531 5.984,11.312 H 94.336 c -0.625,0 -1.121,0.078 -1.484,0.234 -0.356,0.149 -0.715,0.403 -1.079,0.766 -0.742,0.75 -1.261,1.727 -1.562,2.922 l -0.031,0.156 c -0.325,0.906 -0.485,1.899 -0.485,2.969 0,1.094 0.145,2.148 0.438,3.156 v 0.047 c 0.301,1.094 0.801,1.977 1.5,2.641 0.625,0.605 1.488,0.906 2.594,0.906 h 46.078 c 2.812,0 5.25,1.242 7.312,3.719 1.676,2.086 2.883,4.726 3.625,7.922 0.531,2.273 0.797,4.605 0.797,7 0,2.886 -0.422,5.632 -1.266,8.234 -0.835,2.594 -2.121,4.809 -3.859,6.641 -1.867,1.875 -4.07,2.812 -6.609,2.812 z"></path>
                  <path id="path52" style="fill:#005193;fill-opacity:1;fill-rule:nonzero;stroke:none" d="m 230.594,69.082 h -47.266 l -5.844,-11.359 h 43.141 V 44.113 H 192.922 V 32.754 h 37.672 z M 170.141,33.113 v 11 h -9.797 V 33.52 c 0,-2.239 0.238,-4.438 0.718,-6.594 0.489,-2.164 1.196,-4.219 2.126,-6.156 0.945,-1.926 2.082,-3.688 3.406,-5.282 1.32,-1.601 2.804,-3.004 4.453,-4.203 1.656,-1.195 3.453,-2.101 5.391,-2.719 1.937,-0.613 3.957,-0.921 6.062,-0.921 h 40.234 l 0.516,1 3.734,7.234 1.594,3.078 h -45.875 c -1.18,0 -2.262,0.152 -3.25,0.453 -0.992,0.293 -1.98,0.774 -2.969,1.438 -1,0.636 -1.871,1.359 -2.609,2.172 -0.742,0.812 -1.406,1.781 -2,2.906 -0.605,1.117 -1.047,2.242 -1.328,3.375 -0.274,1.137 -0.406,2.406 -0.406,3.812 z"></path>
                  <path id="path54" style="fill:#005193;fill-opacity:1;fill-rule:nonzero;stroke:none" d="m 248.102,7.645 h 9.797 v 61.438 h -9.797 z"></path>
                  <path id="path56" style="fill:#005193;fill-opacity:1;fill-rule:nonzero;stroke:none" d="m 303.633,69.082 h -9.906 l 0.031,-50.078 h -24.016 l -5.89,-11.359 h 64.562 l 5.891,11.359 h -30.641 z"></path>
                  <path id="path58" style="fill:#005193;fill-opacity:1;fill-rule:nonzero;stroke:none" d="M 399.453,44.113 H 347.312 V 32.801 h 46.297 z m 9.078,24.969 H 347.312 V 57.723 h 55.329 z m 0.031,-50.125 h -62.421 l -5.86,-11.312 h 62.36 c 1.968,3.781 3.941,7.554 5.921,11.312 z"></path>
                  <path id="path60" style="fill:#005193;fill-opacity:1;fill-rule:nonzero;stroke:none" d="m 479.047,69.082 h -40.891 c -3.968,0 -7.246,-0.828 -9.828,-2.484 -2.824,-1.789 -5.156,-4.114 -7,-6.969 -3.855,-5.988 -5.781,-13.102 -5.781,-21.344 0,-8.32 1.914,-15.457 5.75,-21.406 1.988,-3.031 4.398,-5.328 7.234,-6.891 2.844,-1.562 6.016,-2.343 9.516,-2.343 h 33.172 l 5.859,11.312 h -38.75 c -1.75,0 -3.289,0.309 -4.609,0.922 -1.313,0.617 -2.559,1.605 -3.735,2.969 -3.343,3.867 -5.015,9.168 -5.015,15.906 0,4.324 0.863,8.219 2.593,11.687 1.083,2.188 2.536,3.95 4.36,5.282 1.82,1.336 3.969,2 6.437,2 h 40.688 z"></path>
                  <path id="path62" style="fill:#005193;fill-opacity:1;fill-rule:nonzero;stroke:none" d="m 556.73,69.082 h -9.828 V 43.645 h -46.297 v 25.437 h -9.828 V 7.645 h 9.828 v 25.718 h 46.297 V 7.645 h 9.828 z"></path>
                  <path id="path64" style="fill:#005193;fill-opacity:1;fill-rule:nonzero;stroke:none" d="m 228.691,69.027 h -44.515 c -4.324,0 -7.891,-0.824 -10.703,-2.468 -3.063,-1.782 -5.602,-4.098 -7.61,-6.954 -4.199,-5.976 -6.297,-13.082 -6.297,-21.312 0,-8.301 2.082,-15.422 6.25,-21.359 2.164,-3.032 4.789,-5.321 7.875,-6.875 3.094,-1.563 6.551,-2.344 10.375,-2.344 h 36.11 l 6.359,11.297 h -42.172 c -1.906,0 -3.578,0.308 -5.015,0.922 -1.43,0.617 -2.782,1.601 -4.063,2.953 -3.648,3.855 -5.469,9.152 -5.469,15.89 0,4.313 0.942,8.2 2.829,11.657 1.175,2.179 2.753,3.933 4.734,5.265 1.988,1.336 4.328,2 7.016,2 h 44.296 z"></path>
                </g>
              </g>
            </g>
          </g>
        </g>
      </g>
    </g>
    <g id="g66">
      <path id="path68" style="fill:#005193;fill-opacity:1;fill-rule:nonzero;stroke:none" d="M 10.43,25.617 H 21.321 V 68.883 H 10.43 Z"></path>
    </g>
  </g>
</svg>
